<?xml version="1.0" encoding="utf-8"?>
<!-- Generator: Adobe Illustrator 22.0.0, SVG Export Plug-In . SVG Version: 6.00 Build 0)  -->
<svg version="1.1" id="Ebene_1" xmlns="http://www.w3.org/2000/svg" xmlns:xlink="http://www.w3.org/1999/xlink" x="0px" y="0px"
	 viewBox="0 0 283.5 283.5" style="enable-background:new 0 0 283.5 283.5;" xml:space="preserve">
<style type="text/css">
	.st0{fill:#FFFFFF;}
	.st1{fill:none;stroke:#000000;stroke-miterlimit:10;}
	.st2{fill:none;stroke:#000000;stroke-width:2;stroke-miterlimit:10;}
</style>
<g>
	<polyline class="st0" points="130.9,226.8 130.9,81.1 221.7,52.3 221.7,197.7 130.9,226.8 	"/>
	<g>
		<path d="M131.9,226.8c0-47.6,0-95.1,0-142.7c0-0.8,0-1.6,0-2.4c0-1.3,0.1,0-0.7,0.2c1.9-0.6,3.8-1.2,5.7-1.8
			c10.2-3.2,20.4-6.5,30.6-9.7c18.1-5.7,36.2-11.5,54.3-17.2c-0.4-0.3-0.8-0.6-1.3-1c0,47.4,0,94.9,0,142.3c0,0.8,0,1.6,0,2.4
			c0,1.3-0.1,0,0.7-0.2c-1.9,0.6-3.8,1.2-5.7,1.8c-10.2,3.3-20.4,6.5-30.6,9.8c-18.1,5.8-36.2,11.6-54.3,17.4
			c-1.2,0.4-0.7,2.3,0.5,1.9c30.2-9.7,60.5-19.4,90.7-29.1c0.4-0.1,0.7-0.5,0.7-1c0-47.4,0-94.9,0-142.3c0-1,0-2.1,0-3.1
			c0-0.6-0.6-1.2-1.3-1c-30.2,9.6-60.5,19.2-90.7,28.8c-0.4,0.1-0.7,0.5-0.7,1c0,47.6,0,95.1,0,142.7c0,1,0,2.1,0,3.1
			C129.9,228.1,131.9,228.1,131.9,226.8L131.9,226.8z"/>
	</g>
</g>
<g>
	<g>
		<path d="M86,62.8c30.2-9.6,60.5-19.2,90.7-28.8c1.2-0.4,0.7-2.3-0.5-1.9c-30.2,9.6-60.5,19.2-90.7,28.8
			C84.3,61.3,84.8,63.2,86,62.8L86,62.8z"/>
	</g>
</g>
<g>
	<g>
		<g>
			<path d="M207,50.9c-23.8,7.5-47.6,15.1-71.4,22.6c-4,1.3-8.1,2.6-12.1,3.8c-0.6,0.2-0.4,1.2,0.3,1c23.8-7.5,47.6-15.1,71.4-22.6
				c4-1.3,8-2.6,12.1-3.8C207.9,51.7,207.6,50.7,207,50.9L207,50.9z"/>
		</g>
	</g>
	<g>
		<g>
			<path d="M199.7,47.7c-23.8,7.5-47.6,15.1-71.4,22.6c-4,1.3-8.1,2.6-12.1,3.8c-0.6,0.2-0.4,1.2,0.3,1
				c23.8-7.5,47.6-15.1,71.4-22.6c4-1.3,8-2.6,12.1-3.8C200.6,48.5,200.3,47.5,199.7,47.7L199.7,47.7z"/>
		</g>
	</g>
	<g>
		<g>
			<path d="M192.4,44.5c-23.8,7.5-47.6,15.1-71.4,22.6c-4,1.3-8.1,2.6-12.1,3.8c-0.6,0.2-0.4,1.2,0.3,1
				c23.8-7.5,47.6-15.1,71.4-22.6c4-1.3,8.1-2.6,12.1-3.8C193.3,45.3,193,44.3,192.4,44.5L192.4,44.5z"/>
		</g>
	</g>
	<g>
		<g>
			<path d="M185.2,41.3c-23.8,7.5-47.6,15.1-71.4,22.6c-4,1.3-8.1,2.6-12.1,3.8c-0.6,0.2-0.4,1.2,0.3,1
				c23.8-7.5,47.6-15.1,71.4-22.6c4-1.3,8-2.6,12.1-3.8C186.1,42.1,185.8,41.1,185.2,41.3L185.2,41.3z"/>
		</g>
	</g>
	<g>
		<g>
			<path d="M177.9,38.1c-23.8,7.5-47.6,15.1-71.4,22.6c-4,1.3-8.1,2.6-12.1,3.8c-0.6,0.2-0.4,1.2,0.3,1
				c23.8-7.5,47.6-15.1,71.4-22.6c4-1.3,8-2.6,12.1-3.8C178.7,38.9,178.5,37.9,177.9,38.1L177.9,38.1z"/>
		</g>
	</g>
</g>
<g>
	<g>
		<g>
			<path d="M210,52.5c-23.8,7.5-47.6,15.1-71.4,22.6c-4,1.3-8.1,2.6-12.1,3.8c-0.6,0.2-0.4,1.2,0.3,1c23.8-7.5,47.6-15.1,71.4-22.6
				c4-1.3,8-2.6,12.1-3.8C210.9,53.3,210.7,52.3,210,52.5L210,52.5z"/>
		</g>
	</g>
	<g>
		<g>
			<path d="M202.8,49.3c-23.8,7.5-47.6,15.1-71.4,22.6c-4,1.3-8.1,2.6-12.1,3.8c-0.6,0.2-0.4,1.2,0.3,1
				c23.8-7.5,47.6-15.1,71.4-22.6c4-1.3,8-2.6,12.1-3.8C203.7,50.1,203.4,49.1,202.8,49.3L202.8,49.3z"/>
		</g>
	</g>
	<g>
		<g>
			<path d="M195.5,46.1c-23.8,7.5-47.6,15.1-71.4,22.6c-4,1.3-8.1,2.6-12.1,3.8c-0.6,0.2-0.4,1.2,0.3,1
				c23.8-7.5,47.6-15.1,71.4-22.6c4-1.3,8-2.6,12.1-3.8C196.3,46.9,196.1,45.9,195.5,46.1L195.5,46.1z"/>
		</g>
	</g>
	<g>
		<g>
			<path d="M188.2,42.9c-23.8,7.5-47.6,15.1-71.4,22.6c-4,1.3-8.1,2.6-12.1,3.8c-0.6,0.2-0.4,1.2,0.3,1
				c23.8-7.5,47.6-15.1,71.4-22.6c4-1.3,8.1-2.6,12.1-3.8C189.1,43.7,188.8,42.7,188.2,42.9L188.2,42.9z"/>
		</g>
	</g>
	<g>
		<g>
			<path d="M180.9,39.7c-23.8,7.5-47.6,15.1-71.4,22.6c-4,1.3-8.1,2.6-12.1,3.8c-0.6,0.2-0.4,1.2,0.3,1
				c23.8-7.5,47.6-15.1,71.4-22.6c4-1.3,8-2.6,12.1-3.8C181.8,40.5,181.6,39.5,180.9,39.7L180.9,39.7z"/>
		</g>
	</g>
	<g>
		<g>
			<path d="M173.6,36.5c-23.8,7.5-47.6,15.1-71.4,22.6c-4,1.3-8.1,2.6-12.1,3.8c-0.6,0.2-0.4,1.2,0.3,1
				c23.8-7.5,47.6-15.1,71.4-22.6c4-1.3,8-2.6,12.1-3.8C174.5,37.3,174.2,36.3,173.6,36.5L173.6,36.5z"/>
		</g>
	</g>
</g>
<g>
	<g>
		<path d="M130.9,82.1c1.3,0,1.3-2,0-2C129.6,80.1,129.6,82.1,130.9,82.1L130.9,82.1z"/>
	</g>
</g>
<g>
	<g>
		<path d="M130.9,227.8c1.3,0,1.3-2,0-2C129.7,225.8,129.7,227.8,130.9,227.8L130.9,227.8z"/>
	</g>
</g>
<g>
	<g>
		<path d="M130.7,80.2c-9.9,2.5-20.4,0-29.5-4.1c-3.8-1.7-16.8-8-14.5-13.9c0.5-1.2-1.4-1.7-1.9-0.5c-2.7,6.6,9,12.8,13.2,15.1
			c9.9,5.2,22.2,8.2,33.2,5.4C132.5,81.8,131.9,79.9,130.7,80.2L130.7,80.2z"/>
	</g>
</g>
<g>
	<g>
		<path d="M85.5,210.5c1.3,0,1.3-2,0-2C84.2,208.5,84.2,210.5,85.5,210.5L85.5,210.5z"/>
	</g>
</g>
<g>
	<g>
		<path d="M130.7,225.9c-9.5,2.4-19.5,0.2-28.4-3.6c-5.3-2.2-14.7-6.7-15.9-13c-0.2-1.3-2.2-0.7-1.9,0.5
			c1.3,7.1,11.1,11.6,16.8,14.2c9.2,4.2,20,6.4,29.9,3.8C132.5,227.5,131.9,225.5,130.7,225.9L130.7,225.9z"/>
	</g>
</g>
<g>
	<g>
		<path d="M22-68.9c19.1-20.9,38.3-41.9,57.4-62.8c0.9-0.9-0.5-2.4-1.4-1.4c-19.1,20.9-38.3,41.9-57.4,62.8
			C19.7-69.4,21.1-67.9,22-68.9L22-68.9z"/>
	</g>
</g>
<g>
	<polyline class="st0" points="-129.7,233.8 -129.7,88.1 -74.5,27.4 -74.5,172.8 -129.7,233.8 	"/>
	<g>
		<path d="M-128.7,233.8c0-47.6,0-95.1,0-142.7c0-1,0-2,0-3.1c0,0.8-0.4,0.7,0.4-0.1c0.7-0.8,1.4-1.6,2.2-2.4
			c6.3-6.9,12.5-13.8,18.8-20.7C-96.1,52.7-85,40.4-73.8,28.1c-0.6-0.2-1.1-0.5-1.7-0.7c0,47.4,0,94.9,0,142.3c0,1,0,2,0,3.1
			c0-0.8,0.4-0.7-0.4,0.1c-0.7,0.8-1.4,1.6-2.2,2.4c-6.3,6.9-12.5,13.9-18.8,20.8c-11.2,12.4-22.4,24.7-33.6,37.1
			c-0.9,1,0.5,2.4,1.4,1.4c16.6-18.3,33.2-36.7,49.8-55c1.7-1.9,4.2-3.9,5.6-6.2c0.7-1.1,0.1-3.8,0.1-5c0-11.1,0-22.2,0-33.2
			c0-35.9,0-71.8,0-107.7c0-0.8-1.1-1.4-1.7-0.7c-16.6,18.2-33.2,36.5-49.8,54.7c-1.7,1.9-4.2,3.9-5.6,6.1c-0.7,1.1-0.1,3.8-0.1,5
			c0,11.1,0,22.2,0,33.3c0,36,0,72,0,108C-130.7,235.1-128.7,235.1-128.7,233.8L-128.7,233.8z"/>
	</g>
</g>
<line class="st1" x1="-123.4" y1="29" x2="-175" y2="85.6"/>
<line class="st1" x1="-120.4" y1="29.3" x2="-171.9" y2="85.8"/>
<line class="st1" x1="-117.2" y1="29.4" x2="-168.7" y2="85.9"/>
<line class="st1" x1="-114" y1="29.5" x2="-165.5" y2="86"/>
<line class="st1" x1="-110.8" y1="29.7" x2="-162.3" y2="86.2"/>
<line class="st1" x1="-107.6" y1="29.8" x2="-159.2" y2="86.3"/>
<line class="st1" x1="-104.5" y1="29.9" x2="-156" y2="86.5"/>
<line class="st1" x1="-101.3" y1="30.1" x2="-152.8" y2="86.6"/>
<line class="st1" x1="-98.2" y1="30.3" x2="-149.7" y2="86.8"/>
<line class="st1" x1="-95" y1="30.4" x2="-146.5" y2="86.9"/>
<line class="st1" x1="-91.8" y1="30.5" x2="-143.3" y2="87.1"/>
<line class="st1" x1="-88.7" y1="30.7" x2="-140.2" y2="87.2"/>
<line class="st1" x1="-85.5" y1="30.8" x2="-137" y2="87.4"/>
<line class="st1" x1="-82.3" y1="31" x2="-133.8" y2="87.5"/>
<g>
	<g>
		<path d="M-179.9,86.7c1.3,0,1.3-2,0-2C-181.2,84.7-181.2,86.7-179.9,86.7L-179.9,86.7z"/>
	</g>
</g>
<g>
	<g>
		<path d="M-130.4,233.1c-7,6.7-18.3,7.2-27.5,6.5c-4.5-0.4-9-1.3-13.2-2.8c-1.7-0.6-7.8-3-7.8-5.4c0-6.9,0-13.8,0-20.7
			c0-30.8,0-61.6,0-92.4c0-9.8,0-19.7,0-29.5c0-0.9,0-1.8,0-2.7c0-1-0.7,0.7,0.1-0.1c2.7-3,5.4-5.9,8.1-8.9
			c16.3-17.8,32.6-35.7,48.9-53.5c0.9-0.9-0.5-2.4-1.4-1.4c-16.8,18.4-33.6,36.7-50.4,55.1c-2.3,2.5-4.6,5.1-6.9,7.6
			c-0.8,0.9-0.4,2.9-0.4,3.9c0,10.4,0,20.8,0,31.2c0,30.7,0,61.4,0,92.2c0,6.4,0,12.9,0,19.3c0,5.1,10.6,7.9,14,8.7
			c8.5,2.2,17.7,2.3,26.2,0.4c4.3-1,8.5-2.9,11.7-6C-128.1,233.7-129.5,232.2-130.4,233.1L-130.4,233.1z"/>
	</g>
</g>
<g>
	<g>
		<path d="M-130.4,87.4c-6.8,6.5-17.5,7.1-26.4,6.6c-6.4-0.4-19.2-1.8-22.3-8.8c-0.5-1.2-2.2-0.2-1.7,1c3.1,7.2,15,8.8,21.7,9.6
			c9.9,1.1,22.4,0.3,30-6.9C-128.1,87.9-129.5,86.5-130.4,87.4L-130.4,87.4z"/>
	</g>
</g>
<path class="st2" d="M-215.3,80.6"/>
<g>
	<g>
		<path d="M86.4,209.2c0-47.6,0-95.1,0-142.7c0-1,0-2.1,0-3.1c0-1.3-2-1.3-2,0c0,47.6,0,95.1,0,142.7c0,1,0,2.1,0,3.1
			C84.4,210.5,86.4,210.5,86.4,209.2L86.4,209.2z"/>
	</g>
</g>
</svg>
