<?xml version="1.0" encoding="utf-8"?>
<!-- Generator: Adobe Illustrator 22.0.0, SVG Export Plug-In . SVG Version: 6.00 Build 0)  -->
<svg version="1.1" id="Ebene_1" xmlns="http://www.w3.org/2000/svg" xmlns:xlink="http://www.w3.org/1999/xlink" x="0px" y="0px"
	 viewBox="0 0 571.1 568.3" style="enable-background:new 0 0 571.1 568.3;" xml:space="preserve">
<style type="text/css">
	.st0{clip-path:url(#SVGID_2_);fill:url(#SVGID_3_);}
</style>
<g>
	<defs>
		<rect id="SVGID_1_" x="91" y="200.2" width="388.2" height="168.8"/>
	</defs>
	<clipPath id="SVGID_2_">
		<use xlink:href="#SVGID_1_"  style="overflow:visible;"/>
	</clipPath>
	
		<linearGradient id="SVGID_3_" gradientUnits="userSpaceOnUse" x1="-115.894" y1="686.8311" x2="-114.894" y2="686.8311" gradientTransform="matrix(99.1316 272.362 272.362 -99.1316 -175347.3438 99802.0078)">
		<stop  offset="0" style="stop-color:#511DBD"/>
		<stop  offset="1.593410e-03" style="stop-color:#511DBD"/>
		<stop  offset="0.2281" style="stop-color:#691DAB"/>
		<stop  offset="0.5079" style="stop-color:#801E9A"/>
		<stop  offset="0.7715" style="stop-color:#8E1E90"/>
		<stop  offset="1" style="stop-color:#931E8C"/>
	</linearGradient>
	<path class="st0" d="M112.7,368l-0.5-0.1l9.9-56.2h-19.5l-9.8,55.8h19.9V368l-0.5-0.1L112.7,368v0.5H91.6l10.2-57.8h21.5
		l-10.2,57.8h-0.4V368z M179.8,314.5l0.5,0.1l-3.8,21.4l-1.7,10.3h-0.7h-0.3l-0.1-0.3c-1.1-2.5-1.8-3.9-4.6-7.9l0,0l-17.3-25.4
		l1.2,0.2c5.3,1,11.4,1.5,18,1.5c3.2,0,6.1-0.2,8.8-0.4l0.7-0.1l-0.1,0.7L179.8,314.5l0.1,0.5c-2.7,0.3-5.6,0.4-8.9,0.4
		c-6.7,0-12.7-0.4-18.2-1.5l0.1-0.5l0.4-0.3l16.6,24.4l-0.4,0.3l0.4-0.3c2.8,4,3.6,5.6,4.7,8.1l-0.5,0.2v-0.5h0.2v0.5l-0.5-0.1
		l1.6-9.9l3.8-21.4L179.8,314.5l0.1,0.5L179.8,314.5z M196.4,274.9l-0.3-0.4l12.7-11.3l0.3,0.4l-0.4,0.4c-7.8-7.8-22.2-9.2-33.2-9.2
		c-26.3,0.1-31.9,10.7-32,19.3c0,11,9.9,15.2,20.6,16.5l0,0l14.1,1.8l-0.1,0.5l0.1-0.5c4.2,0.4,6.2,1.5,6.2,3.9
		c-0.1,3.4-3.7,5.1-11.7,5.1c-8.6,0-18.3-2.6-25.1-9.3l0.4-0.4l0.3,0.4l-15.2,11.4l-0.3-0.4l0.4-0.3c2.9,3.5,6.9,6.1,11.7,7.9
		l-0.2,1h-13.7l-9.8,55.8h17.5l4.2-24.5l0,0c0.7-3.7,1.1-6.9,1.6-9.9l0.1-0.4h0.7h0.3l0.1,0.3c0.9,1.9,2.4,4.4,4.6,7.5l0,0
		l19.3,27.1h18.7l9.8-55.8h-5.1l-0.2-1c9.3-4.2,11.6-11,11.6-16.9c0-11.8-9.8-14.8-21.1-16.2l0,0l-13.3-1.5l0,0
		c-5.1-0.6-7-1.6-7-4.1c0.1-3.6,3.4-4.4,10.2-4.6l0,0l0,0c0.5,0,0.9,0,1.4,0c7.9,0,16.1,1.4,21.9,7.1L196.4,274.9l-0.3-0.4
		L196.4,274.9l-0.4,0.4c-5.5-5.5-13.5-6.8-21.2-6.8c-0.5,0-0.9,0-1.4,0l0,0l0,0c-6.9,0.2-9.2,1.1-9.2,3.6c0,1.7,0.9,2.4,6.1,3.1
		l-0.1,0.5l0.1-0.5l13.3,1.5l0,0c11.3,1.3,22,4.6,22,17.2c0,6.2-2.6,13.5-12.2,17.8l-0.2-0.5v-0.5h6.3l-10.2,57.8h-20L149.7,341l0,0
		c-2.3-3.1-3.8-5.6-4.7-7.7l0.5-0.2v0.5h-0.2v-0.5l0.5,0.1c-0.5,3-0.9,6.2-1.6,9.9l-0.5-0.1l0.5,0.1l-4.4,25.4h-19.6l10.2-57.8h14.5
		v0.5l-0.2,0.5c-4.9-1.9-9.1-4.5-12.1-8.2l-0.3-0.4l16-12l0.3,0.3c6.5,6.5,16,9.1,24.4,9.1c8,0,10.7-1.8,10.7-4.1
		c0-1.7-1-2.4-5.3-2.9l0,0l-14.1-1.8l0,0c-10.8-1.3-21.5-5.7-21.5-17.5c0-9.2,6.5-20.3,33-20.3c11.1,0,25.7,1.3,33.9,9.5l0.4,0.4
		l-13.5,11.9l-0.3-0.3L196.4,274.9z M314.2,227.5h0.5c0,8.5-5.6,17.7-20.7,17.7h-13.6l5.5-31.3h13.3c7.9,0,15.4,3.5,15.5,13.6H314.2
		h-0.5c0-9.4-6.8-12.6-14.5-12.6h-12.5l-5.2,29.3l12.4,0c14.7,0,19.6-8.6,19.7-16.7H314.2z M274.5,258v-0.5h7.3l-9.5,54.2h-7.2
		l2.2-12h-39.4l1.7-9.6H267l2-11.6h-37.5l1.6-9.1h39l2-12h0.4V258l0.5,0.1l-2.1,12.4h-39l-1.3,7.1h37.5l-2.3,13.6h-37.5l-1.3,7.6
		h39.4l-2.2,12h5.1l9.2-52.2h-6.1V258l0.5,0.1L274.5,258z M227.2,313v-0.5h28l-3.6,20.6h-28.4l3.6-20.6h0.4V313l0.5,0.1l-3.3,19
		h26.3l3.3-18.6h-26.8V313l0.5,0.1L227.2,313z M304,344.9l-0.4-0.3l5.8-9.8l0,0c2.6-4.3,4.9-8.5,6.4-12.2l0.1-0.3h0.6h0.4l0.1,0.4
		c0.5,3.8,1,7.7,2.1,12.2l0,0l2.4,10.5h-18.2l0.4-0.8L304,344.9v-0.5h16.1l-2.1-9.2l0.5-0.1l-0.5,0.1c-1.1-4.5-1.6-8.5-2.1-12.3
		l0.5-0.1v0.5h-0.2v-0.5l0.5,0.2c-1.5,3.7-3.9,8-6.4,12.3l0,0l-5.8,9.8L304,344.9v-0.5V344.9z M336.1,225.8h-0.5
		c0-20.2-16.2-24.1-34.9-24.1h-32.1l-9.7,55h-43l-9.8,55.8h0.7h0.6l-9.7,55h19.5l3.8-21.8h28.4l-3.8,21.8h19.4l9.7-55h29.2l-35.2,55
		h21.8l6.3-10.8H324l2.5,10.8h19.8l-16.1-55.8h-2.6l2.4-13.9h-35.8l7.1-40.6l0.4,0c24.6-2.3,33.8-16.6,33.9-31.3H336.1h0.5
		c0,15.2-9.8,30.1-34.8,32.3l0-0.5l0.5,0.1l-6.8,39.1h35.8l-2.4,13.9h2.2l16.7,57.8h-21.9l-2.5-10.8h-26l-6.3,10.8h-24.2l35.2-55
		h-26.5l-9.7,55h-21.4l3.8-21.8h-26.3l-3.8,21.8h-21.5l9.7-55h-0.7h-0.6l10.2-57.8h43l9.7-55h33c18.6,0,35.8,4.2,35.9,25.1H336.1z
		 M356.2,289.7v-0.5h19.2c3.9,0,7,1.1,7,5.3c0,3.1-1.7,6.3-8.8,6.3h-19.8l2-11.6h0.4V289.7l0.5,0.1l-1.7,10.1h18.6
		c6.8-0.1,7.7-2.7,7.8-5.3c-0.1-3.6-2.1-4.2-6-4.3h-19.2V289.7l0.5,0.1L356.2,289.7z M377.8,278.4v0.5h-20.2l1.9-10.5h18.9
		c3.4,0,6.5,1.1,6.5,4.7c0,2.4-1.4,5.9-7.1,5.9V278.4v-0.5c5.2-0.1,6-2.8,6.1-4.9c0-2.8-2.2-3.6-5.5-3.7h-18.1l-1.5,8.5h19V278.4z
		 M401.1,215l-0.5-0.1l2.2-13.2h-58.3l-9.8,55.8h7.2l-9.7,55h27.3l-9.7,55h55.3l2.5-14.7h-35.8l7.1-40.4l0.4,0
		c18.4-0.7,23.1-9.1,23.2-16.6c0-7.7-5-10.7-10.7-11.5l0-1c9.9-1.9,13.9-7.3,13.9-13.7c0-7.2-4.4-10.7-11.6-12.2l-0.5-0.1l2.3-12.6
		h-39.4l1.7-9.6h37.5l2-11.6h-37.5l1.6-9.1h39.4V215l-0.5-0.1L401.1,215v0.5h-38.5l-1.3,7.1h37.5l-2.3,13.6H359l-1.3,7.6h39.4
		l-2.4,13.3l-0.5-0.1l0.1-0.5c7.4,1.4,12.5,5.5,12.4,13.1c0,6.9-4.5,12.8-14.7,14.7l-0.1-0.5l0.1-0.5c5.9,0.8,11.6,4.2,11.6,12.5
		c0,8-5.5,17-24.1,17.6l0-0.5l0.5,0.1l-6.8,38.8h35.8l-2.9,16.7h-57.3l9.7-55H331l9.7-55h-7.2l10.2-57.8h60.4l-2.5,14.8h-0.4V215z
		 M450.3,220.2h0.5c0,3.6-2.2,7.6-9.1,7.6h-16.2l2.5-14h15.2c3.9,0,7.5,1.7,7.5,6.4H450.3h-0.5c0-4.1-2.9-5.4-6.5-5.4h-14.4l-2.1,12
		h15c6.4-0.1,8-3.5,8.1-6.6H450.3z M423.9,239.4v-0.5h12.2l8.3,17.8h-24.1l3.1-17.8h0.4V239.4l0.5,0.1l-2.9,16.2H443l-7.4-15.8
		l-11.6,0V239.4l0.5,0.1L423.9,239.4z M466.3,256.2l-0.5,0.2l-9.3-19.5l0.6-0.2c12-3.2,14.5-11.5,14.5-18.1c0-12.9-10.5-17-22.6-17
		h-38.4l-9.8,55.8h14l-9.7,55h9l-2.5,13.8h21.9l-7.3,41.2h19.4l7.4-41.2h21.8l2.6-14.6h-13.3l2.2-12h-39.4l1.7-9.6h37.5l2-11.6
		h-37.5l1.6-9.1h39l2.2-12.8H466l-0.1-0.3L466.3,256.2v-0.5h8.2l-2.5,14.8h-39l-1.3,7.1h37.5l-2.3,13.6h-37.5l-1.3,7.6l39.4,0
		l-2.2,12h13.3l-3,16.6h-21.8l-7.4,41.2h-21.4l7.3-41.2h-21.9l2.5-13.8h-9l9.7-55h-14l10.2-57.8H449c12.2,0,23.6,4.4,23.6,18
		c0,6.8-2.8,15.8-15.3,19l-0.1-0.5l0.5-0.2l9.1,18.9L466.3,256.2v-0.5V256.2z"/>
</g>
</svg>
