<?xml version="1.0" encoding="utf-8"?>
<!-- Generator: Adobe Illustrator 22.0.0, SVG Export Plug-In . SVG Version: 6.00 Build 0)  -->
<svg version="1.1" id="Ebene_1" xmlns="http://www.w3.org/2000/svg" xmlns:xlink="http://www.w3.org/1999/xlink" x="0px" y="0px"
	 viewBox="0 0 571.1 568.3" style="enable-background:new 0 0 571.1 568.3;" xml:space="preserve">
<style type="text/css">
	.st0{clip-path:url(#SVGID_2_);fill:url(#SVGID_3_);}
	.st1{clip-path:url(#SVGID_2_);fill:url(#SVGID_4_);}
	.st2{clip-path:url(#SVGID_2_);fill:url(#SVGID_5_);}
</style>
<g>
	<defs>
		<rect id="SVGID_1_" x="8" y="225.3" width="554.5" height="117.6"/>
	</defs>
	<clipPath id="SVGID_2_">
		<use xlink:href="#SVGID_1_"  style="overflow:visible;"/>
	</clipPath>
	
		<linearGradient id="SVGID_3_" gradientUnits="userSpaceOnUse" x1="-112.1214" y1="682.746" x2="-111.1214" y2="682.746" gradientTransform="matrix(7.024570e-15 -114.72 -114.72 -7.024570e-15 78561.2891 -12520.123)">
		<stop  offset="0" style="stop-color:#197544"/>
		<stop  offset="1.593410e-03" style="stop-color:#197544"/>
		<stop  offset="0.1637" style="stop-color:#187148"/>
		<stop  offset="1" style="stop-color:#135F5B"/>
	</linearGradient>
	<path class="st0" d="M76.3,242l-0.5-0.1l2.2-13.2H19.6l-9.8,55.8h58.9l2.3-12.8H31.6l1.7-9.6h37.5l2-11.6H35.3l1.6-9.1h39.4V242
		l-0.5-0.1L76.3,242v0.5H37.7l-1.3,7.1H74l-2.3,13.6H34.1l-1.3,7.6h39.4l-2.7,14.8H8.6l10.2-57.8h60.4l-2.5,14.8h-0.4V242z
		 M95.8,285l-0.5-0.1l9.9-56.2H85.7l-9.8,55.8h19.9V285l-0.5-0.1L95.8,285v0.5H74.7l10.2-57.8h21.5l-10.2,57.8h-0.4V285z
		 M182.4,283.2v0.5h-10.7l9.7-55H164l-4.3,24.3l-1.7,10.3h-0.7H157l-0.1-0.3c-1.1-2.5-1.8-3.9-4.6-7.9l0,0l-18-26.4h-20l-9.8,55.8
		H122l4.2-24.5l0,0c0.7-3.7,1.1-6.9,1.6-9.9l0.1-0.4h0.7h0.3l0.1,0.3c0.9,1.9,2.4,4.4,4.6,7.5l0,0l18.7,26.3h-28.9l-9.8,55.8h19.5
		l3.6-20.4h37.6l2.2-12.8h-37.5l1.7-9.5h39l2.3-13.7L182.4,283.2v0.5V283.2l0.5,0.1l-2.5,14.6h-39l-1.3,7.5h37.5l-2.5,14.8h-37.6
		l-3.6,20.4h-21.5l10.2-57.8h27.8L132.8,258l0,0c-2.3-3.1-3.8-5.6-4.7-7.7l0.5-0.2v0.5h-0.2v-0.5l0.5,0.1c-0.5,3-0.9,6.2-1.6,9.9
		l-0.5-0.1l0.5,0.1l-4.4,25.4h-19.6l10.2-57.8h21.3l18.3,26.9l-0.4,0.3l0.4-0.3c2.8,4,3.6,5.6,4.7,8.1l-0.5,0.2v-0.5h0.2v0.5
		l-0.5-0.1l1.6-9.9l4.5-25.1h19.5l-9.7,55l10.1,0l-0.1,0.6L182.4,283.2z M280.9,296.3v-0.5h14.8c3.9,0,7.5,1.7,7.5,6.4
		c0,3.6-2.2,7.6-9.1,7.6H278l2.5-14h0.4V296.3l0.5,0.1l-2.2,12.5h15c6.4-0.1,8-3.5,8.1-6.6c0-4.1-2.9-5.4-6.5-5.4h-14.8V296.3
		l0.5,0.1L280.9,296.3z M217.5,296.1v-0.5c7.9,0,15.8,3.8,15.9,13.5c0,8.9-5.3,18.6-19.7,18.6c-7.9,0-15.8-3.8-15.9-13.5
		c0-8.8,5.3-18.5,19.7-18.5V296.1v0.5c-13.9,0-18.7,9-18.7,17.5c0,9.1,7.2,12.5,14.9,12.5c13.9,0,18.7-9,18.7-17.6
		c0-9-7.2-12.4-14.9-12.5V296.1z M420.2,258.2l-0.5-0.1l5.2-29.4h-19.5l-5,28.9l0,0c-1.3,7.4-5.8,14.1-15.6,14.1
		c-5.9,0-13.2-2.5-13.2-11.5c0-1.2,0.1-2.4,0.4-3.8l0,0l5-27.6h-19.5l-4.9,26.7l0,0c-0.5,2.5-0.7,4.8-0.7,6.9
		c0,17.8,14.9,24,32.3,24.1c0.2,0,0.4,0,0.6,0l0.8,0l-13.4,26.5l0,0c-1.4,2.8-2.7,5.1-3.4,7.2l-0.1,0.3h-0.5h-0.5l0-0.5
		c0-0.3,0-0.6,0-1c0-1.8-0.3-3.7-0.7-6l0,0l-4.9-29.2h-19.4l2.2-12h-39.4l1.7-9.6h37.5l2-11.6h-37.5l1.6-9.1h39l2.2-12.8h-58.3
		l-9.7,55h-9.2l9.7-55h-17.5l-4.3,24.3l-1.7,10.3h-0.7h-0.3l-0.1-0.3c-1.1-2.5-1.8-3.9-4.6-7.9l0,0l-18-26.4h-20l-9.5,53.7l-0.4,0.1
		c-23.4,3.6-30.2,19.9-30.3,32.3c0,20,18.7,26.6,37.1,26.6c31.3,0,39.8-19.1,39.9-33c0-16.8-13.1-24.1-28.3-26.1l-0.5-0.1l3.9-22.3
		l0,0c0.7-3.7,1.1-6.9,1.6-9.9l0.1-0.4h0.7h0.3l0.1,0.3c0.9,1.9,2.4,4.4,4.6,7.5l0,0l19.3,27.1h7.1l-9.7,55h19.5L276,321h12.7
		l8.7,18.6h21.4L309,319l0.6-0.2c12-3.2,14.5-11.5,14.5-18.1c0-8.4-4.4-12.9-10.8-15.2l0.2-1h19.9l-9.7,55h16.7l5.4-30.8l0,0
		c0.7-3.8,1.2-8.2,1.3-11.9l0-0.5h0.8h0.5l0,0.5c0.2,2.7,0.7,7,1.7,11.4l0,0l5.8,31.4h18.3l17.8-31.7l0,0c2.2-3.9,4.3-8.1,5.8-11.2
		l0.1-0.3h0.7h0.7l-0.2,0.7c-1.4,4.1-2.5,8.4-3.2,11.9l0,0l-5.4,30.6h17.7l9.8-55.8l-14.9,0l-0.2-1c9.8-4.7,14.7-13.4,16.6-24.6l0,0
		L420.2,258.2l0.5,0.1c-2,11.4-7,20.5-17.2,25.4l-0.2-0.5v-0.5h16.1l-10.2,57.8h-19.7l5.6-31.8l0,0c0.6-3.6,1.8-7.9,3.2-12.1
		l0.5,0.2v0.5h-0.4v-0.5l0.5,0.2c-1.5,3.2-3.6,7.4-5.9,11.3l0,0l-18.1,32.2h-19.7l-6-32.2l0.5-0.1l-0.5,0.1c-1-4.4-1.4-8.8-1.7-11.5
		l0.5,0v0.5h-0.3v-0.5l0.5,0c-0.1,3.8-0.6,8.2-1.3,12.1l-0.5-0.1l0.5,0.1l-5.6,31.6h-18.8l9.7-55h-18.7V285l0.2-0.5
		c6.7,2.3,11.5,7.4,11.5,16.2c0,6.8-2.8,15.8-15.3,19l-0.1-0.5l0.5-0.2l10.3,21.4h-23.7L288,322h-11.2l-3.3,18.6h-21.5l9.7-55h-6.5
		L235.7,258l0,0c-2.3-3.1-3.8-5.6-4.7-7.7l0.5-0.2v0.5h-0.2v-0.5l0.5,0.1c-0.5,3-0.9,6.2-1.6,9.9l-0.5-0.1l0.5,0.1l-3.8,21.8
		l-0.5-0.1l0.1-0.5c15.4,1.9,29.2,9.6,29.2,27.1c0,14.4-9.1,34-40.9,34l0,0c-18.5,0-38.1-6.8-38.1-27.6c0-12.7,7.2-29.7,31.1-33.3
		l0.1,0.5l-0.5-0.1l9.5-54.2h21.3l18.3,26.9l-0.4,0.3l0.4-0.3c2.8,4,3.6,5.6,4.7,8.1l-0.5,0.2v-0.5h0.2v0.5l-0.5-0.1l1.6-9.9
		l4.5-25.1h19.5l-9.7,55h7.1l9.7-55H353l-2.5,14.8h-39l-1.3,7.1h37.5l-2.3,13.6H308l-1.3,7.6h39.4l-2.2,12l19,0l5,30l0,0
		c0.4,2.3,0.8,4.3,0.8,6.2c0,0.3,0,0.7,0,1l-0.5,0v-0.5h0.2v0.5l-0.5-0.2c0.7-2.2,2-4.6,3.5-7.4l0,0l13-25.7l0.4,0.2l0,0.5
		c-0.2,0-0.4,0-0.6,0c-17.5,0-33.2-6.6-33.3-25.1c0-2.2,0.2-4.6,0.7-7.1l0,0l5-27.5h21.5l-5.2,28.8l0,0c-0.2,1.3-0.4,2.5-0.4,3.6
		c0,8.3,6.5,10.5,12.2,10.5c9.3,0,13.3-6.1,14.6-13.3l0.5,0.1l-0.5-0.1l5.2-29.7h21.5l-5.4,30.6l0,0L420.2,258.2z M447.4,316.9
		l-0.4-0.3l5.8-9.8l0,0c2.6-4.3,4.9-8.5,6.4-12.2l0.1-0.3h0.6h0.4l0.1,0.4c0.5,3.8,1,7.7,2.1,12.2l0,0l2.4,10.5h-18.2l0.4-0.8
		L447.4,316.9v-0.5h16.1l-2.1-9.2l0.5-0.1l-0.5,0.1c-1.1-4.5-1.6-8.5-2.1-12.3l0.5-0.1v0.5h-0.2v-0.5l0.5,0.2
		c-1.5,3.7-3.9,8-6.4,12.3l0,0l-5.8,9.8L447.4,316.9v-0.5V316.9z"/>
	
		<linearGradient id="SVGID_4_" gradientUnits="userSpaceOnUse" x1="-112.0705" y1="684.3557" x2="-111.0705" y2="684.3557" gradientTransform="matrix(6.907010e-15 -112.8 -112.8 -6.907010e-15 77645.9766 -12301.0312)">
		<stop  offset="0" style="stop-color:#197544"/>
		<stop  offset="1.593410e-03" style="stop-color:#197544"/>
		<stop  offset="0.1637" style="stop-color:#187148"/>
		<stop  offset="1" style="stop-color:#135F5B"/>
	</linearGradient>
	<polygon class="st1" points="482.8,273.6 483.1,271.8 443.7,271.8 445.4,262.2 482.9,262.2 484.9,250.6 447.3,250.6 449,241.5 
		487.9,241.5 490.1,228.7 431.7,228.7 421.9,284.5 447.1,284.5 411.9,339.5 433.6,339.5 440,328.7 467.4,328.7 469.9,339.5 
		489.7,339.5 473.8,284.5 480.8,284.5 482.2,276.6 483.2,276.8 481.6,285.5 475.1,285.5 491,340.5 469.1,340.5 466.6,329.7 
		440.5,329.7 434.2,340.5 410.1,340.5 445.3,285.5 420.7,285.5 430.9,227.7 491.2,227.7 488.8,242.5 449.8,242.5 448.5,249.6 
		486,249.6 483.7,263.2 446.2,263.2 444.9,270.8 484.3,270.8 483.7,273.8 482.8,273.6 	"/>
	
		<linearGradient id="SVGID_5_" gradientUnits="userSpaceOnUse" x1="-112.1214" y1="684.3872" x2="-111.1214" y2="684.3872" gradientTransform="matrix(7.024570e-15 -114.72 -114.72 -7.024570e-15 79035.0234 -12522.043)">
		<stop  offset="0" style="stop-color:#197544"/>
		<stop  offset="1.593410e-03" style="stop-color:#197544"/>
		<stop  offset="0.1637" style="stop-color:#187148"/>
		<stop  offset="1" style="stop-color:#135F5B"/>
	</linearGradient>
	<path class="st2" d="M483.1,276.4c3.5,3.5,8.3,6,14,7.6l0.4,0.1l-2.6,14.2h21.9l-7.3,41.2H529l7.4-41.2h21.8l2.6-14.6h-19.1l-0.2-1
		c9.3-4.2,11.6-11,11.6-16.9c0-11.8-9.8-14.8-21.1-16.2l0,0l-13.3-1.5l0,0c-5.1-0.6-7-1.6-7-4.1c0.1-3.6,3.4-4.4,10.2-4.6l0,0l0,0
		c0.5,0,0.9,0,1.4,0c7.9,0,16.1,1.4,21.9,7.1l-0.4,0.4l-0.3-0.4l12.7-11.3l0.3,0.4l-0.4,0.4c-7.8-7.8-22.2-9.2-33.2-9.2
		c-26.3,0.1-31.9,10.7-32,19.3c0,11,9.9,15.2,20.6,16.5l0,0l14.1,1.8l-0.1,0.5l0.1-0.5c4.2,0.4,6.2,1.5,6.2,3.9
		c-0.1,3.4-3.7,5.1-11.7,5.1c-8.6,0-18.3-2.6-25.1-9.3l0.4-0.4l0.3,0.4l-13.2,10l-0.6-0.8l13.6-10.2l0.3,0.3
		c6.5,6.5,16,9.1,24.4,9.1c8,0,10.7-1.8,10.7-4.1c0-1.7-1-2.4-5.3-2.9l0,0l-14.1-1.8l0,0c-10.8-1.3-21.5-5.7-21.5-17.5
		c0-9.2,6.5-20.3,33-20.3c11.1,0,25.7,1.3,33.9,9.5l0.4,0.4l-13.5,11.9l-0.3-0.3c-5.5-5.5-13.5-6.8-21.2-6.8c-0.5,0-0.9,0-1.4,0l0,0
		c-6.9,0.2-9.2,1.1-9.2,3.6c0,1.7,0.9,2.4,6.1,3.1l-0.1,0.5l0.1-0.5l13.3,1.5l0,0c11.3,1.3,22,4.6,22,17.2c0,6.2-2.6,13.5-12.2,17.8
		l-0.2-0.5v-0.5h20.3l-3,16.6h-21.8l-7.4,41.2h-21.4l7.3-41.2h-21.9l2.7-15l0.5,0.1l-0.1,0.5c-5.8-1.6-10.7-4.1-14.4-7.8
		L483.1,276.4L483.1,276.4z"/>
</g>
</svg>
