<?xml version="1.0" encoding="utf-8"?>
<!-- Generator: Adobe Illustrator 22.0.0, SVG Export Plug-In . SVG Version: 6.00 Build 0)  -->
<svg version="1.1" id="Ebene_1" xmlns="http://www.w3.org/2000/svg" xmlns:xlink="http://www.w3.org/1999/xlink" x="0px" y="0px"
	 viewBox="0 0 571.1 568.3" style="enable-background:new 0 0 571.1 568.3;" xml:space="preserve">
<style type="text/css">
	.st0{clip-path:url(#SVGID_2_);fill:url(#SVGID_3_);}
	.st1{clip-path:url(#SVGID_2_);fill:url(#SVGID_4_);}
	.st2{clip-path:url(#SVGID_2_);fill:url(#SVGID_5_);}
</style>
<g>
	<defs>
		<rect id="SVGID_1_" x="8" y="225.4" width="554.5" height="117.6"/>
	</defs>
	<clipPath id="SVGID_2_">
		<use xlink:href="#SVGID_1_"  style="overflow:visible;"/>
	</clipPath>
	
		<linearGradient id="SVGID_3_" gradientUnits="userSpaceOnUse" x1="-116.7278" y1="686.7152" x2="-115.7278" y2="686.7152" gradientTransform="matrix(33.9444 192.508 192.508 -33.9444 -128010.2188 45970.6211)">
		<stop  offset="0" style="stop-color:#197544"/>
		<stop  offset="1.593410e-03" style="stop-color:#197544"/>
		<stop  offset="0.6185" style="stop-color:#2C586C"/>
		<stop  offset="1" style="stop-color:#354A80"/>
	</linearGradient>
	<path class="st0" d="M76.2,242l-0.5-0.1l2.2-13.2H19.6l-9.8,55.8h58.9l2.3-12.8H31.6l1.7-9.6h37.5l2-11.6H35.2l1.6-9.1h39.4V242
		l-0.5-0.1L76.2,242v0.5H37.7l-1.3,7.1l37.5,0l-2.3,13.6H34.1l-1.3,7.6h39.4l-2.7,14.8H8.6l10.2-57.8h60.4l-2.5,14.8h-0.4V242z
		 M95.8,285.1l-0.5-0.1l9.9-56.2H85.7l-9.8,55.8h19.9V285.1l-0.5-0.1L95.8,285.1v0.5H74.7l10.2-57.8h21.5l-10.2,57.8h-0.4V285.1z
		 M193.8,340.1l-0.4-0.3l2.8-4.4l1.8-10.5h-35.8l7.1-40.3h2.2l9.8-55.8h-17.5l-4.3,24.3l-1.7,10.3h-0.7h-0.3l-0.1-0.3
		c-1.1-2.5-1.8-3.9-4.6-7.9l0,0l-18-26.4h-20l-9.8,55.8H122l4.2-24.5l0,0c0.7-3.7,1.1-6.9,1.6-9.9l0.1-0.4h0.7h0.3l0.1,0.3
		c0.9,1.9,2.4,4.4,4.6,7.5l0,0l18.7,26.3H150l-9.8,55.8h53.6V340.1l-0.4-0.3L193.8,340.1v0.5H139l10.2-57.8h1.2l-17.6-24.7l0,0
		c-2.3-3.1-3.8-5.6-4.7-7.7l0.5-0.2v0.5h-0.2v-0.5l0.5,0.1c-0.5,3-0.9,6.2-1.6,9.9l-0.5-0.1l0.5,0.1l-4.4,25.4h-19.6l10.2-57.8h21.3
		l18.3,26.9l-0.4,0.3l0.4-0.3c2.8,4,3.6,5.6,4.7,8.1l-0.5,0.2v-0.5h0.2v0.5l-0.5-0.1l1.6-9.9l4.5-25.1h19.5l-10.2,57.8h-2.2
		l-6.7,38.3h35.8l-2.1,11.9l-3.1,4.8h-0.3V340.1z M246.9,317v0.5h-17.6l6.2-10.6l0,0c2.6-4.3,4.9-8.5,6.4-12.2l0.1-0.3h0.6h0.4
		l0.1,0.4c0.5,3.8,1,7.7,2.1,12.2l0,0l2.4,10.5h-0.6V317l-0.5,0.1l-2.2-9.8l0.5-0.1l-0.5,0.1c-1.1-4.5-1.6-8.5-2.1-12.3l0.5-0.1v0.5
		h-0.2v-0.5l0.5,0.2c-1.5,3.7-3.9,8-6.4,12.3l0,0l-5.3,9.1h15.8V317l-0.5,0.1L246.9,317z M274.9,285.1l-0.5-0.1l9.9-56.2h-17.5
		l-4.3,24.3l-1.7,10.3h-0.7h-0.3l-0.1-0.3c-1.1-2.5-1.8-3.9-4.6-7.9l0,0l-18-26.4h-20l-9.8,55.8h17.5l4.2-24.6l0,0
		c0.7-3.7,1.1-6.9,1.6-9.9l0.1-0.4h0.7h0.3l0.1,0.3c0.9,1.9,2.4,4.4,4.6,7.5l0,0l18.7,26.3h-24.7l-33.3,52l-0.7,3.8h20l6.3-10.8
		h27.4l2.5,10.8h19.8l-15.9-55h18.2V285.1l-0.5-0.1L274.9,285.1v0.5H258l15.9,55h-21.9l-2.5-10.8h-26l-6.3,10.8h-21.8l0.9-5.1
		l33.7-52.7h23.3l-17.6-24.7l0,0c-2.3-3.1-3.8-5.6-4.7-7.7l0.5-0.2v0.5h-0.2v-0.5l0.5,0.1c-0.5,3-0.9,6.2-1.6,9.9l-0.5-0.1l0.5,0.1
		l-4.4,25.4h-19.6l10.2-57.8h21.3l18.3,26.9l-0.4,0.3l0.4-0.3c2.8,4,3.6,5.6,4.7,8.1l-0.5,0.2v-0.5h0.2v0.5l-0.5-0.1l1.6-9.9
		l4.5-25.1h19.5l-10.2,57.8h-0.4V285.1z M309.3,304l-0.5,0.2l-9.2-19.6h31L314,304.3l0,0c-1.8,2.2-2.3,2.8-2.6,3.3l-0.1,0.3h-0.5
		h-0.4l-0.1-0.4c-0.1-0.6-0.4-1.2-1.4-3.3l0,0l0,0L309.3,304l0.5-0.2c1,2.2,1.3,2.8,1.5,3.5l-0.5,0.1v-0.5h0.2v0.5l-0.4-0.2
		c0.4-0.7,0.9-1.4,2.7-3.5l0,0l15.4-18.1h-27.3l8.5,18.2L309.3,304l0.5-0.2L309.3,304z M350.1,242l-0.5-0.1l2.2-13.2h-58.3l-9.7,55
		h-4.9l20.6,37.5l-3.2,18.3h19.5l3.2-18.4l33.7-37.4h-10l2.2-12h-39.4l1.7-9.6h37.5l2-11.6h-37.5l1.6-9.1h39.4V242l-0.5-0.1
		L350.1,242v0.5h-38.5l-1.3,7.1l37.5,0l-2.3,13.6h-37.5l-1.3,7.6H346l-2.2,12h11l-35,38.8l-3.3,19h-21.5l3.4-19.1l-21.2-38.7h5.7
		l9.7-55H353l-2.5,14.8h-0.4V242z M366.1,314.2h-0.5c0-8.8,5.3-18.5,19.7-18.5c7.9,0,15.8,3.8,15.9,13.5c0,8.9-5.3,18.6-19.7,18.6
		c-7.9,0-15.8-3.8-15.9-13.5H366.1h0.5c0,9.1,7.2,12.5,14.9,12.5c13.9,0,18.7-9,18.7-17.6c0-9-7.2-12.4-14.9-12.5
		c-13.9,0-18.7,9-18.7,17.5H366.1z M420.1,258.3l-0.5-0.1l5.2-29.4h-19.5l-5,28.9l0,0c-1.3,7.4-5.8,14.1-15.6,14.1
		c-5.9,0-13.2-2.5-13.2-11.5c0-1.2,0.1-2.4,0.4-3.8l0,0l5-27.7h-19.5l-4.9,26.7l0,0c-0.5,2.5-0.7,4.8-0.7,6.9
		c0,11.3,6,17.8,14.8,21.3l1.3,0.5l-1.3,0.4c-16.6,5.8-21.8,19.5-21.8,30.3c0,20,18.7,26.6,37.1,26.6c31.3,0,39.8-19.1,39.9-33
		c0-13.5-8.4-20.8-19.6-24.3l-1.3-0.4l1.2-0.5c10.4-4.5,15.5-13.5,17.5-25.1l0,0l0,0L420.1,258.3l0.5,0.1
		c-2,11.7-7.3,21.1-18.1,25.8l-0.2-0.5l0.1-0.5c11.4,3.5,20.4,11.2,20.3,25.2c0,14.4-9.1,34-40.9,34l0,0c-18.5,0-38.1-6.8-38.1-27.6
		c0-11.1,5.4-25.3,22.5-31.2l0.2,0.5l-0.2,0.5c-9.1-3.5-15.4-10.5-15.4-22.2c0-2.2,0.2-4.6,0.7-7.1l0,0l5-27.5h21.5l-5.2,28.8l0,0
		c-0.2,1.3-0.4,2.5-0.4,3.6c0,8.3,6.5,10.5,12.2,10.5c9.3,0,13.3-6.1,14.6-13.3l0.5,0.1l-0.5-0.1l5.2-29.7H426l-5.4,30.6l0,0
		L420.1,258.3z M448.5,285.1v-0.5h28l-4.9,28.1l0,0c-1.3,7.4-5.8,14.1-15.6,14.1c-5.9,0-13.2-2.5-13.2-11.5c0-1.2,0.1-2.4,0.4-3.8
		l0,0l4.9-26.9h0.4V285.1l0.5,0.1l-4.8,26.4l0,0c-0.2,1.3-0.4,2.5-0.4,3.6c0,8.3,6.5,10.5,12.2,10.5c9.3,0,13.3-6.1,14.6-13.3
		l0.5,0.1l-0.5-0.1l4.7-26.9h-26.9V285.1l0.5,0.1L448.5,285.1z"/>
	
		<linearGradient id="SVGID_4_" gradientUnits="userSpaceOnUse" x1="-148.7268" y1="704.9653" x2="-147.7268" y2="704.9653" gradientTransform="matrix(1.6335 9.2638 9.2638 -1.6335 -5801.9253 2804.8657)">
		<stop  offset="0" style="stop-color:#197544"/>
		<stop  offset="1.593410e-03" style="stop-color:#197544"/>
		<stop  offset="0.6185" style="stop-color:#2C586C"/>
		<stop  offset="1" style="stop-color:#354A80"/>
	</linearGradient>
	<path class="st1" d="M483,276.4c2.7,2.8,6.2,4.8,10.3,6.4l-0.2,1h-12.3l1.3-7.1l1,0.2l-1.1,5.9h11.1v0.5l-0.2,0.5
		c-4.2-1.6-7.8-3.7-10.7-6.6L483,276.4L483,276.4z"/>
	
		<linearGradient id="SVGID_5_" gradientUnits="userSpaceOnUse" x1="-117.3774" y1="687.1037" x2="-116.3774" y2="687.1037" gradientTransform="matrix(24.2183 137.349 137.349 -24.2183 -91051.1172 32977.6562)">
		<stop  offset="0" style="stop-color:#197544"/>
		<stop  offset="1.593410e-03" style="stop-color:#197544"/>
		<stop  offset="0.6185" style="stop-color:#2C586C"/>
		<stop  offset="1" style="stop-color:#354A80"/>
	</linearGradient>
	<path class="st2" d="M482.7,273.7l0.3-1.9h-39.4l1.7-9.6h37.5l2-11.6l-37.5,0l1.6-9.1h39l2.2-12.8h-58.3l-9.8,55.8h6.7l-4.7,25.9
		l0,0c-0.5,2.5-0.7,4.8-0.7,6.9c0,17.8,14.9,24,32.3,24.1c23.3-0.1,32.5-11.5,35.5-28.3l0,0l5.2-29.4l0.5,0.2c0.1,0,0.2,0.1,0.4,0.1
		l0.4,0.1l-2.6,14.2h21.9l-7.3,41.2h19.4l7.4-41.2H558l2.6-14.6h-19.1l-0.2-1c9.3-4.2,11.6-11,11.6-16.9c0-11.8-9.8-14.8-21.1-16.2
		l0,0l-13.3-1.5l0,0c-5.1-0.6-7-1.6-7-4.1c0.1-3.6,3.4-4.4,10.2-4.6l0,0l0,0c0.5,0,0.9,0,1.4,0c7.9,0,16.1,1.4,21.9,7.1l-0.4,0.4
		l-0.3-0.4l12.7-11.3l0.3,0.4l-0.4,0.4c-7.8-7.8-22.2-9.2-33.2-9.2c-26.3,0.1-31.9,10.7-32,19.3c0,11,9.9,15.2,20.6,16.5l0,0
		l14.1,1.8l-0.1,0.5l0.1-0.5c4.2,0.4,6.2,1.5,6.2,3.9c-0.1,3.4-3.7,5.1-11.7,5.1c-8.6,0-18.3-2.6-25.1-9.3l0.4-0.4l0.3,0.4l-13.2,10
		l-0.3-0.4l0.5,0.1l0,0.2l-1-0.2L482.7,273.7l0-0.2l13.7-10.3l0.3,0.3c6.5,6.5,16,9.1,24.4,9.1c8,0,10.7-1.8,10.7-4.1
		c0-1.7-1-2.4-5.3-2.9l0,0l-14.1-1.8l0,0c-10.8-1.3-21.5-5.7-21.5-17.5c0-9.2,6.5-20.3,33-20.3c11.1,0,25.7,1.3,33.9,9.5l0.4,0.4
		l-13.5,11.9l-0.3-0.3c-5.5-5.5-13.5-6.8-21.2-6.8c-0.5,0-0.9,0-1.4,0l0,0l0,0c-6.9,0.2-9.2,1.1-9.2,3.6c0,1.7,0.9,2.4,6.1,3.1
		l-0.1,0.5l0.1-0.5l13.3,1.5l0,0c11.3,1.3,22,4.6,22,17.2c0,6.2-2.6,13.5-12.2,17.8l-0.2-0.5v-0.5h20.3l-3,16.6h-21.8l-7.4,41.2
		h-21.4l7.3-41.2h-21.9l2.7-15l0.5,0.1l-0.1,0.5c-0.1,0-0.2-0.1-0.4-0.1l0.1-0.5l0.5,0.1l-5.1,28.9l0,0
		c-2.9,17.1-12.9,29.2-36.5,29.1c-17.5,0-33.2-6.6-33.3-25.1c0-2.2,0.2-4.6,0.7-7.1l0,0l4.5-24.7h-6.7l10.2-57.8h60.4l-2.5,14.8h-39
		l-1.3,7.1H486l-2.3,13.6h-37.5l-1.3,7.6l39.4,0l-0.5,3L482.7,273.7L482.7,273.7z"/>
</g>
</svg>
