<?xml version="1.0" encoding="utf-8"?>
<!-- Generator: Adobe Illustrator 22.0.0, SVG Export Plug-In . SVG Version: 6.00 Build 0)  -->
<svg version="1.1" id="Ebene_1" xmlns="http://www.w3.org/2000/svg" xmlns:xlink="http://www.w3.org/1999/xlink" x="0px" y="0px"
	 viewBox="0 0 571.1 568.3" style="enable-background:new 0 0 571.1 568.3;" xml:space="preserve">
<style type="text/css">
	.st0{clip-path:url(#SVGID_2_);fill:#292A2A;}
</style>
<g>
	<defs>
		<rect id="SVGID_1_" x="32" y="172.3" width="507.7" height="223.7"/>
	</defs>
	<clipPath id="SVGID_2_">
		<use xlink:href="#SVGID_1_"  style="overflow:visible;"/>
	</clipPath>
	<path class="st0" d="M536.9,354.8l2.8-15.6h-64.2l-2.8,15.6h21.9l-7.3,41.2h20.4l7.4-41.2H536.9z M475.6,354.8l2.8-15.6h-64.2
		l-2.8,15.6h21.9l-7.3,41.2h20.4l7.4-41.2H475.6z M381.2,372.9h-16.7l5.8-9.8c2.6-4.3,4.9-8.6,6.4-12.2h0.2c0.5,3.8,1,7.8,2.1,12.2
		L381.2,372.9z M384.1,385.2l2.5,10.8h20.9L391,339.2h-26.6L328.1,396h23l6.3-10.8H384.1z M283.8,339.2l-10,56.8h56.3l2.7-15.7
		h-35.8l7.2-41.1H283.8z M242.9,383.4h-19.2l1.8-10.6h19.2c3.9,0,6.5,0.9,6.5,4.8C251.2,380.4,249.8,383.4,242.9,383.4 M247.1,361.4
		h-19.6l1.7-9.5h18.5c3.4,0,6,1,6,4.2C253.7,358.2,252.6,361.4,247.1,361.4 M261.3,366.8c10.1-1.9,14.3-7.6,14.3-14.2
		c0-9.9-8.4-13.4-20.2-13.4H211L201,396h45.5c20.4,0,25.9-9.1,25.9-17.2C272.4,370.8,267,367.6,261.3,366.8"/>
	<path class="st0" d="M497.8,342.9c28.4,0,34.2-11.8,34.2-21c0-12.2-10.2-15.4-21.5-16.7l-13.3-1.5c-5.1-0.6-6.6-1.5-6.6-3.6
		c0-3,2.9-3.9,9.7-4.1c8.2-0.2,17,1,23,7l12.7-11.3c-8-8-22.5-9.4-33.5-9.4c-26.4,0-32.5,11-32.5,19.8c0,11.4,10.3,15.7,21,17
		l14.1,1.8c4.2,0.5,5.8,1.4,5.8,3.4c0,2.9-3.2,4.6-11.2,4.6c-8.5,0-18.1-2.6-24.7-9.2l-15.2,11.4C467,340,480.5,342.9,497.8,342.9
		 M427.8,298h39l2.3-13.8h-59.4l-10,56.8h59.9l2.5-13.8h-39.4l1.5-8.6h37.5l2.2-12.6h-37.5L427.8,298z M365.2,342.9
		c28.4,0,34.2-11.8,34.2-21c0-12.2-10.2-15.4-21.5-16.7l-13.3-1.5c-5.1-0.6-6.6-1.5-6.6-3.6c0-3,2.9-3.9,9.7-4.1c8.2-0.2,17,1,23,7
		l12.7-11.3c-8-8-22.5-9.4-33.5-9.4c-26.4,0-32.5,11-32.5,19.8c0,11.4,10.3,15.7,21,17l14.1,1.8c4.2,0.5,5.8,1.4,5.8,3.4
		c0,2.9-3.2,4.6-11.2,4.6c-8.5,0-18.1-2.6-24.7-9.2l-15.2,11.4C334.5,340,347.9,342.9,365.2,342.9 M298.7,342.9
		c28.4,0,34.2-11.8,34.2-21c0-12.2-10.2-15.4-21.5-16.7l-13.3-1.5c-5.1-0.6-6.6-1.5-6.6-3.6c0-3,2.9-3.9,9.7-4.1c8.2-0.2,17,1,23,7
		l12.7-11.3c-8-8-22.5-9.4-33.5-9.4c-26.4,0-32.5,11-32.5,19.8c0,11.4,10.3,15.7,21,17l14.1,1.8c4.2,0.5,5.8,1.4,5.8,3.4
		c0,2.9-3.2,4.6-11.2,4.6c-8.5,0-18.1-2.6-24.7-9.2l-15.2,11.4C268,340,281.4,342.9,298.7,342.9 M238.2,341h20.5l10-56.8h-20.5
		L238.2,341z M200.2,298h39l2.3-13.8h-59.4l-10,56.8H232l2.5-13.8H195l1.5-8.6h37.5l2.2-12.6h-37.5L200.2,298z M69.6,284.2L79,341
		h23.3l16.6-32c0.9-1.6,1.6-3.4,2.2-5.4h0.4c-0.2,1.9,0,3.8,0.2,5.4l5.4,32h22.6l29.4-56.8h-20.9l-14.7,31.9c-1,2.1-1.8,4.1-2.2,6.1
		h-0.4c0.2-2-0.2-4.2-0.6-6.1l-5.4-31.9h-21.6l-16.6,31.9c-1,1.9-2.2,4.1-2.8,6.1h-0.3c0.3-2,0.1-4-0.2-6.1l-3.4-31.9H69.6z"/>
	<path class="st0" d="M465.9,229.2l-10,56.8h18.6l4.3-25c0.7-3.8,1.1-6.9,1.6-9.9h0.2c0.9,2,2.4,4.5,4.6,7.6l19.4,27.3h19.4l10-56.8
		h-18.5l-4.4,24.7l-1.6,9.9h-0.2c-1.1-2.5-1.8-4-4.6-8l-18.2-26.6H465.9z M427.4,286h20.5l10-56.8h-20.5L427.4,286z M389.4,243h39
		l2.3-13.8h-59.4l-10,56.8h59.9l2.5-13.8h-39.4l1.5-8.6h37.5l2.2-12.6h-37.5L389.4,243z M326.6,286l10-56.8h-20.4l-3.8,21.4H285
		l3.8-21.4h-20.5l-10,56.8h20.5l3.8-21.8H310l-3.8,21.8H326.6z M220.6,287.9c18.4,0,31.1-7.4,37.4-20.6l-20.2-4.6
		c-2.2,5.6-7,10-16.3,10c-7.4,0-15.4-2.7-15.4-13.4c0-7.6,4.1-16.7,18.2-16.7c6.8,0,12.5,2.3,15.2,10.1l21.8-4
		c-3.6-14.5-18.6-21.3-36.3-21.3c-28.9,0-40.8,16.4-40.8,32.8C184.4,279.6,200.9,287.9,220.6,287.9 M145.4,273.1
		c-7.8,0-15.4-3.6-15.4-13c0-8.6,5-18,19.2-18c7.8,0,15.4,3.6,15.4,13C164.6,263.8,159.5,273.1,145.4,273.1 M145.8,287.9
		c31.5,0,40.4-19.4,40.4-33.5c0-20.4-19-27.1-37.5-27.1c-31.5,0-40.5,19.4-40.5,33.5C108.2,281.2,127.4,287.9,145.8,287.9 M42,229.2
		L32,286h18.6l4.3-25c0.7-3.8,1.1-6.9,1.6-9.9h0.2c0.9,2,2.4,4.5,4.6,7.6L80.8,286h19.4l10-56.8H91.7l-4.4,24.7l-1.6,9.9h-0.2
		c-1.1-2.5-1.8-4-4.6-8l-18.2-26.6H42z"/>
	<path class="st0" d="M536.9,189.8l2.8-15.6h-64.2l-2.8,15.6h21.9l-7.3,41.2h20.4l7.4-41.2H536.9z M436.5,232.9
		c28.4,0,34.2-11.8,34.2-21c0-12.2-10.2-15.4-21.5-16.7l-13.3-1.5c-5.1-0.6-6.6-1.5-6.6-3.6c0-3,2.9-3.9,9.7-4.1c8.2-0.2,17,1,23,7
		l12.7-11.3c-8-8-22.5-9.4-33.5-9.4c-26.4,0-32.5,11-32.5,19.8c0,11.4,10.3,15.7,21,17l14.1,1.8c4.2,0.5,5.8,1.4,5.8,3.4
		c0,2.9-3.2,4.6-11.2,4.6c-8.5,0-18.1-2.6-24.7-9.2l-15.2,11.4C405.8,230,419.2,232.9,436.5,232.9 M375.9,231h20.5l10-56.8h-20.5
		L375.9,231z M314.9,232.9c28.4,0,34.2-11.8,34.2-21c0-12.2-10.2-15.4-21.5-16.7l-13.3-1.5c-5.1-0.6-6.6-1.5-6.6-3.6
		c0-3,2.9-3.9,9.7-4.1c8.2-0.2,17,1,23,7l12.7-11.3c-8-8-22.5-9.4-33.5-9.4c-26.4,0-32.5,11-32.5,19.8c0,11.4,10.3,15.7,21,17
		l14.1,1.8c4.2,0.5,5.8,1.4,5.8,3.4c0,2.9-3.2,4.6-11.2,4.6c-8.5,0-18.1-2.6-24.7-9.2l-15.2,11.4C284.2,230,297.6,232.9,314.9,232.9
		 M244.9,188h39l2.3-13.8h-59.4l-10,56.8h59.9l2.5-13.8h-39.4l1.5-8.6h37.5L281,196h-37.5L244.9,188z M188.2,231h20.5l10-56.8h-20.5
		L188.2,231z M148.2,217.7h-13l5.4-30.3h12.9c7.8,0,15,3.4,15,13.1C168.3,208.8,163,217.7,148.2,217.7 M122.3,174.2l-10,56.8h36.6
		c30,0,41.4-15.8,41.4-32.2c0-20.6-16.7-24.6-35.4-24.6H122.3z"/>
</g>
</svg>
