<?xml version="1.0" encoding="utf-8"?>
<!-- Generator: Adobe Illustrator 22.0.0, SVG Export Plug-In . SVG Version: 6.00 Build 0)  -->
<svg version="1.1" id="Ebene_1" xmlns="http://www.w3.org/2000/svg" xmlns:xlink="http://www.w3.org/1999/xlink" x="0px" y="0px"
	 viewBox="0 0 283.5 283.5" style="enable-background:new 0 0 283.5 283.5;" xml:space="preserve">
<style type="text/css">
	.st0{fill:none;stroke:#000000;stroke-width:0.5;}
	.st1{fill:none;stroke:#000000;stroke-width:0.35;}
	.st2{clip-path:url(#SVGID_2_);fill:none;stroke:#000000;stroke-width:0.2;}
	.st3{clip-path:url(#SVGID_4_);fill:none;stroke:#000000;stroke-width:0.2;}
</style>
<line class="st0" x1="143.4" y1="99.5" x2="159" y2="99.5"/>
<line class="st0" x1="179" y1="99.5" x2="194.7" y2="99.5"/>
<line class="st0" x1="160.4" y1="99.5" x2="176.1" y2="99.5"/>
<line class="st0" x1="196.1" y1="99.5" x2="211.7" y2="99.5"/>
<line class="st0" x1="143.4" y1="124" x2="159" y2="124"/>
<line class="st0" x1="179" y1="124" x2="194.7" y2="124"/>
<line class="st0" x1="160.4" y1="124" x2="176.1" y2="124"/>
<line class="st0" x1="196.1" y1="124" x2="211.7" y2="124"/>
<line class="st0" x1="143.4" y1="111.7" x2="159" y2="111.7"/>
<line class="st0" x1="179" y1="111.7" x2="194.7" y2="111.7"/>
<line class="st0" x1="160.4" y1="111.7" x2="176.1" y2="111.7"/>
<line class="st0" x1="196.1" y1="111.7" x2="211.7" y2="111.7"/>
<line class="st0" x1="143.4" y1="136.2" x2="159" y2="136.2"/>
<line class="st0" x1="179" y1="136.2" x2="194.7" y2="136.2"/>
<line class="st0" x1="160.4" y1="136.2" x2="176.1" y2="136.2"/>
<line class="st0" x1="160.4" y1="160.7" x2="176.1" y2="160.7"/>
<line class="st0" x1="196.1" y1="136.2" x2="211.7" y2="136.2"/>
<line class="st0" x1="143.4" y1="156.6" x2="159" y2="156.6"/>
<line class="st0" x1="143.4" y1="164.7" x2="159" y2="164.7"/>
<line class="st0" x1="179" y1="156.6" x2="194.7" y2="156.6"/>
<line class="st0" x1="179" y1="168.8" x2="194.7" y2="168.8"/>
<line class="st0" x1="196.1" y1="168.8" x2="211.7" y2="168.8"/>
<line class="st0" x1="160.4" y1="156.6" x2="176.1" y2="156.6"/>
<line class="st0" x1="196.1" y1="156.6" x2="211.7" y2="156.6"/>
<line class="st0" x1="143.4" y1="101.6" x2="159" y2="101.6"/>
<line class="st0" x1="179" y1="101.6" x2="194.7" y2="101.6"/>
<line class="st0" x1="160.4" y1="101.6" x2="176.1" y2="101.6"/>
<line class="st0" x1="196.1" y1="101.6" x2="211.7" y2="101.6"/>
<line class="st0" x1="143.4" y1="126" x2="159" y2="126"/>
<line class="st0" x1="179" y1="126" x2="194.7" y2="126"/>
<line class="st0" x1="160.4" y1="126" x2="176.1" y2="126"/>
<line class="st0" x1="196.1" y1="126" x2="211.7" y2="126"/>
<line class="st0" x1="143.4" y1="113.8" x2="159" y2="113.8"/>
<line class="st0" x1="179" y1="113.8" x2="194.7" y2="113.8"/>
<line class="st0" x1="160.4" y1="113.8" x2="176.1" y2="113.8"/>
<line class="st0" x1="196.1" y1="113.8" x2="211.7" y2="113.8"/>
<line class="st0" x1="143.4" y1="138.2" x2="159" y2="138.2"/>
<line class="st0" x1="179" y1="138.2" x2="194.7" y2="138.2"/>
<line class="st0" x1="160.4" y1="138.2" x2="176.1" y2="138.2"/>
<line class="st0" x1="160.4" y1="162.7" x2="176.1" y2="162.7"/>
<line class="st0" x1="196.1" y1="138.2" x2="211.7" y2="138.2"/>
<line class="st0" x1="143.4" y1="158.6" x2="159" y2="158.6"/>
<line class="st0" x1="143.4" y1="166.8" x2="159" y2="166.8"/>
<line class="st0" x1="179" y1="158.6" x2="194.7" y2="158.6"/>
<line class="st0" x1="179" y1="170.9" x2="194.7" y2="170.9"/>
<line class="st0" x1="196.1" y1="170.9" x2="211.7" y2="170.9"/>
<line class="st0" x1="160.4" y1="158.6" x2="176.1" y2="158.6"/>
<line class="st0" x1="196.1" y1="158.6" x2="211.7" y2="158.6"/>
<line class="st0" x1="143.4" y1="103.6" x2="159" y2="103.6"/>
<line class="st0" x1="179" y1="103.6" x2="194.7" y2="103.6"/>
<line class="st0" x1="160.4" y1="103.6" x2="176.1" y2="103.6"/>
<line class="st0" x1="196.1" y1="103.6" x2="211.7" y2="103.6"/>
<line class="st0" x1="143.4" y1="128.1" x2="159" y2="128.1"/>
<line class="st0" x1="179" y1="128.1" x2="194.7" y2="128.1"/>
<line class="st0" x1="160.4" y1="128.1" x2="176.1" y2="128.1"/>
<line class="st0" x1="196.1" y1="128.1" x2="211.7" y2="128.1"/>
<line class="st0" x1="143.4" y1="148.4" x2="159" y2="148.4"/>
<line class="st0" x1="179" y1="148.4" x2="194.7" y2="148.4"/>
<line class="st0" x1="179" y1="160.7" x2="194.7" y2="160.7"/>
<line class="st0" x1="196.1" y1="160.7" x2="211.7" y2="160.7"/>
<line class="st0" x1="160.4" y1="148.4" x2="176.1" y2="148.4"/>
<line class="st0" x1="196.1" y1="148.4" x2="211.7" y2="148.4"/>
<line class="st0" x1="143.4" y1="115.8" x2="159" y2="115.8"/>
<line class="st0" x1="179" y1="115.8" x2="194.7" y2="115.8"/>
<line class="st0" x1="160.4" y1="115.8" x2="176.1" y2="115.8"/>
<line class="st0" x1="196.1" y1="115.8" x2="211.7" y2="115.8"/>
<line class="st0" x1="143.4" y1="140.3" x2="159" y2="140.3"/>
<line class="st0" x1="179" y1="140.3" x2="194.7" y2="140.3"/>
<line class="st0" x1="160.4" y1="140.3" x2="176.1" y2="140.3"/>
<line class="st0" x1="160.4" y1="164.7" x2="176.1" y2="164.7"/>
<line class="st0" x1="196.1" y1="140.3" x2="211.7" y2="140.3"/>
<line class="st0" x1="143.4" y1="105.6" x2="159" y2="105.6"/>
<line class="st0" x1="179" y1="105.6" x2="194.7" y2="105.6"/>
<line class="st0" x1="160.4" y1="105.6" x2="176.1" y2="105.6"/>
<line class="st0" x1="196.1" y1="105.6" x2="211.7" y2="105.6"/>
<line class="st0" x1="143.4" y1="130.1" x2="159" y2="130.1"/>
<line class="st0" x1="179" y1="130.1" x2="194.7" y2="130.1"/>
<line class="st0" x1="160.4" y1="130.1" x2="176.1" y2="130.1"/>
<line class="st0" x1="196.1" y1="130.1" x2="211.7" y2="130.1"/>
<line class="st0" x1="143.4" y1="150.5" x2="159" y2="150.5"/>
<line class="st0" x1="179" y1="150.5" x2="194.7" y2="150.5"/>
<line class="st0" x1="179" y1="162.7" x2="194.7" y2="162.7"/>
<line class="st0" x1="196.1" y1="162.7" x2="211.7" y2="162.7"/>
<line class="st0" x1="160.4" y1="150.5" x2="176.1" y2="150.5"/>
<line class="st0" x1="196.1" y1="150.5" x2="211.7" y2="150.5"/>
<line class="st0" x1="143.4" y1="117.9" x2="159" y2="117.9"/>
<line class="st0" x1="179" y1="117.9" x2="194.7" y2="117.9"/>
<line class="st0" x1="160.4" y1="117.9" x2="176.1" y2="117.9"/>
<line class="st0" x1="196.1" y1="117.9" x2="211.7" y2="117.9"/>
<line class="st0" x1="143.4" y1="142.3" x2="159" y2="142.3"/>
<line class="st0" x1="179" y1="142.3" x2="194.7" y2="142.3"/>
<line class="st0" x1="160.4" y1="142.3" x2="176.1" y2="142.3"/>
<line class="st0" x1="160.4" y1="166.8" x2="176.1" y2="166.8"/>
<line class="st0" x1="196.1" y1="142.3" x2="211.7" y2="142.3"/>
<line class="st0" x1="143.4" y1="107.7" x2="159" y2="107.7"/>
<line class="st0" x1="179" y1="107.7" x2="194.7" y2="107.7"/>
<line class="st0" x1="160.4" y1="107.7" x2="176.1" y2="107.7"/>
<line class="st0" x1="196.1" y1="107.7" x2="211.7" y2="107.7"/>
<line class="st0" x1="143.4" y1="132.1" x2="159" y2="132.1"/>
<line class="st0" x1="179" y1="132.1" x2="194.7" y2="132.1"/>
<line class="st0" x1="160.4" y1="132.1" x2="176.1" y2="132.1"/>
<line class="st0" x1="196.1" y1="132.1" x2="211.7" y2="132.1"/>
<line class="st0" x1="143.4" y1="152.5" x2="159" y2="152.5"/>
<line class="st0" x1="143.4" y1="160.7" x2="159" y2="160.7"/>
<line class="st0" x1="179" y1="152.5" x2="194.7" y2="152.5"/>
<line class="st0" x1="179" y1="164.7" x2="194.7" y2="164.7"/>
<line class="st0" x1="196.1" y1="164.7" x2="211.7" y2="164.7"/>
<line class="st0" x1="160.4" y1="152.5" x2="176.1" y2="152.5"/>
<line class="st0" x1="196.1" y1="152.5" x2="211.7" y2="152.5"/>
<line class="st0" x1="143.4" y1="119.9" x2="159" y2="119.9"/>
<line class="st0" x1="179" y1="119.9" x2="194.7" y2="119.9"/>
<line class="st0" x1="160.4" y1="119.9" x2="176.1" y2="119.9"/>
<line class="st0" x1="196.1" y1="119.9" x2="211.7" y2="119.9"/>
<line class="st0" x1="143.4" y1="144.4" x2="159" y2="144.4"/>
<line class="st0" x1="179" y1="144.4" x2="194.7" y2="144.4"/>
<line class="st0" x1="160.4" y1="144.4" x2="176.1" y2="144.4"/>
<line class="st0" x1="160.4" y1="168.8" x2="176.1" y2="168.8"/>
<line class="st0" x1="143.4" y1="168.8" x2="159" y2="168.8"/>
<line class="st0" x1="196.1" y1="144.4" x2="211.7" y2="144.4"/>
<line class="st0" x1="143.4" y1="109.7" x2="159" y2="109.7"/>
<line class="st0" x1="179" y1="109.7" x2="194.7" y2="109.7"/>
<line class="st0" x1="160.4" y1="109.7" x2="176.1" y2="109.7"/>
<line class="st0" x1="196.1" y1="109.7" x2="211.7" y2="109.7"/>
<line class="st0" x1="143.4" y1="134.2" x2="159" y2="134.2"/>
<line class="st0" x1="179" y1="134.2" x2="194.7" y2="134.2"/>
<line class="st0" x1="160.4" y1="134.2" x2="176.1" y2="134.2"/>
<line class="st0" x1="196.1" y1="134.2" x2="211.7" y2="134.2"/>
<line class="st0" x1="143.4" y1="154.6" x2="159" y2="154.6"/>
<line class="st0" x1="143.4" y1="162.7" x2="159" y2="162.7"/>
<line class="st0" x1="179" y1="154.6" x2="194.7" y2="154.6"/>
<line class="st0" x1="179" y1="166.8" x2="194.7" y2="166.8"/>
<line class="st0" x1="196.1" y1="166.8" x2="211.7" y2="166.8"/>
<line class="st0" x1="160.4" y1="154.6" x2="176.1" y2="154.6"/>
<line class="st0" x1="196.1" y1="154.6" x2="211.7" y2="154.6"/>
<line class="st0" x1="143.4" y1="121.9" x2="159" y2="121.9"/>
<line class="st0" x1="179" y1="121.9" x2="194.7" y2="121.9"/>
<line class="st0" x1="160.4" y1="121.9" x2="176.1" y2="121.9"/>
<line class="st0" x1="196.1" y1="121.9" x2="211.7" y2="121.9"/>
<line class="st0" x1="143.4" y1="146.4" x2="159" y2="146.4"/>
<line class="st0" x1="179" y1="146.4" x2="194.7" y2="146.4"/>
<line class="st0" x1="160.4" y1="146.4" x2="176.1" y2="146.4"/>
<line class="st0" x1="160.4" y1="170.9" x2="176.1" y2="170.9"/>
<line class="st0" x1="143.4" y1="170.9" x2="159" y2="170.9"/>
<line class="st1" x1="143.4" y1="176.1" x2="159" y2="176.1"/>
<line class="st1" x1="179" y1="176.1" x2="194.7" y2="176.1"/>
<line class="st1" x1="160.4" y1="176.1" x2="176.1" y2="176.1"/>
<line class="st1" x1="196.1" y1="176.1" x2="211.7" y2="176.1"/>
<line class="st1" x1="143.4" y1="174.3" x2="159" y2="174.3"/>
<line class="st1" x1="179" y1="174.3" x2="194.7" y2="174.3"/>
<line class="st1" x1="160.4" y1="174.3" x2="176.1" y2="174.3"/>
<line class="st1" x1="196.1" y1="174.3" x2="211.7" y2="174.3"/>
<line class="st1" x1="143.4" y1="179.8" x2="159" y2="179.8"/>
<line class="st1" x1="179" y1="179.8" x2="194.7" y2="179.8"/>
<line class="st1" x1="160.4" y1="179.8" x2="176.1" y2="179.8"/>
<line class="st1" x1="196.1" y1="179.8" x2="211.7" y2="179.8"/>
<line class="st1" x1="143.4" y1="177.9" x2="159" y2="177.9"/>
<line class="st1" x1="179" y1="177.9" x2="194.7" y2="177.9"/>
<line class="st1" x1="160.4" y1="177.9" x2="176.1" y2="177.9"/>
<line class="st1" x1="196.1" y1="177.9" x2="211.7" y2="177.9"/>
<line class="st1" x1="143.4" y1="181.6" x2="159" y2="181.6"/>
<line class="st1" x1="179" y1="181.6" x2="194.7" y2="181.6"/>
<line class="st1" x1="160.4" y1="181.6" x2="176.1" y2="181.6"/>
<line class="st1" x1="196.1" y1="181.6" x2="211.7" y2="181.6"/>
<line class="st1" x1="143.4" y1="177" x2="159" y2="177"/>
<line class="st1" x1="179" y1="177" x2="194.7" y2="177"/>
<line class="st1" x1="160.4" y1="177" x2="176.1" y2="177"/>
<line class="st1" x1="196.1" y1="177" x2="211.7" y2="177"/>
<line class="st1" x1="143.4" y1="175.2" x2="159" y2="175.2"/>
<line class="st1" x1="179" y1="175.2" x2="194.7" y2="175.2"/>
<line class="st1" x1="160.4" y1="175.2" x2="176.1" y2="175.2"/>
<line class="st1" x1="196.1" y1="175.2" x2="211.7" y2="175.2"/>
<line class="st1" x1="143.4" y1="180.7" x2="159" y2="180.7"/>
<line class="st1" x1="179" y1="180.7" x2="194.7" y2="180.7"/>
<line class="st1" x1="160.4" y1="180.7" x2="176.1" y2="180.7"/>
<line class="st1" x1="196.1" y1="180.7" x2="211.7" y2="180.7"/>
<line class="st1" x1="143.4" y1="178.9" x2="159" y2="178.9"/>
<line class="st1" x1="179" y1="178.9" x2="194.7" y2="178.9"/>
<line class="st1" x1="160.4" y1="178.9" x2="176.1" y2="178.9"/>
<line class="st1" x1="196.1" y1="178.9" x2="211.7" y2="178.9"/>
<line class="st1" x1="143.4" y1="182.5" x2="159" y2="182.5"/>
<line class="st1" x1="179" y1="182.5" x2="194.7" y2="182.5"/>
<line class="st1" x1="160.4" y1="182.5" x2="176.1" y2="182.5"/>
<line class="st1" x1="196.1" y1="182.5" x2="211.7" y2="182.5"/>
<line class="st1" x1="143.4" y1="183.4" x2="159" y2="183.4"/>
<line class="st1" x1="179" y1="183.4" x2="194.7" y2="183.4"/>
<line class="st1" x1="160.4" y1="183.4" x2="176.1" y2="183.4"/>
<line class="st1" x1="196.1" y1="183.4" x2="211.7" y2="183.4"/>
<line class="st0" x1="196.1" y1="146.4" x2="211.7" y2="146.4"/>
<g>
	<defs>
		<rect id="SVGID_1_" x="70.2" y="94.4" width="143.2" height="93.8"/>
	</defs>
	<clipPath id="SVGID_2_">
		<use xlink:href="#SVGID_1_"  style="overflow:visible;"/>
	</clipPath>
	<rect x="141.9" y="94.5" class="st2" width="71.4" height="93.6"/>
</g>
<line class="st0" x1="71.8" y1="99.5" x2="87.4" y2="99.5"/>
<line class="st0" x1="107.4" y1="99.5" x2="123.1" y2="99.5"/>
<line class="st0" x1="88.8" y1="99.5" x2="104.5" y2="99.5"/>
<line class="st0" x1="124.5" y1="99.5" x2="140.1" y2="99.5"/>
<line class="st0" x1="71.8" y1="124" x2="87.4" y2="124"/>
<line class="st0" x1="107.4" y1="124" x2="123.1" y2="124"/>
<line class="st0" x1="88.8" y1="124" x2="104.5" y2="124"/>
<line class="st0" x1="124.5" y1="124" x2="140.1" y2="124"/>
<line class="st0" x1="71.8" y1="111.7" x2="87.4" y2="111.7"/>
<line class="st0" x1="107.4" y1="111.7" x2="123.1" y2="111.7"/>
<line class="st0" x1="88.8" y1="111.7" x2="104.5" y2="111.7"/>
<line class="st0" x1="124.5" y1="111.7" x2="140.1" y2="111.7"/>
<line class="st0" x1="71.8" y1="136.2" x2="87.4" y2="136.2"/>
<line class="st0" x1="107.4" y1="136.2" x2="123.1" y2="136.2"/>
<line class="st0" x1="88.8" y1="136.2" x2="104.5" y2="136.2"/>
<line class="st0" x1="88.8" y1="160.7" x2="104.5" y2="160.7"/>
<line class="st0" x1="124.5" y1="136.2" x2="140.1" y2="136.2"/>
<line class="st0" x1="71.8" y1="156.6" x2="87.4" y2="156.6"/>
<line class="st0" x1="71.8" y1="164.7" x2="87.4" y2="164.7"/>
<line class="st0" x1="107.4" y1="156.6" x2="123.1" y2="156.6"/>
<line class="st0" x1="107.4" y1="168.8" x2="123.1" y2="168.8"/>
<line class="st0" x1="124.5" y1="168.8" x2="140.1" y2="168.8"/>
<line class="st0" x1="88.8" y1="156.6" x2="104.5" y2="156.6"/>
<line class="st0" x1="124.5" y1="156.6" x2="140.1" y2="156.6"/>
<line class="st0" x1="71.8" y1="101.6" x2="87.4" y2="101.6"/>
<line class="st0" x1="107.4" y1="101.6" x2="123.1" y2="101.6"/>
<line class="st0" x1="88.8" y1="101.6" x2="104.5" y2="101.6"/>
<line class="st0" x1="124.5" y1="101.6" x2="140.1" y2="101.6"/>
<line class="st0" x1="71.8" y1="126" x2="87.4" y2="126"/>
<line class="st0" x1="107.4" y1="126" x2="123.1" y2="126"/>
<line class="st0" x1="88.8" y1="126" x2="104.5" y2="126"/>
<line class="st0" x1="124.5" y1="126" x2="140.1" y2="126"/>
<line class="st0" x1="71.8" y1="113.8" x2="87.4" y2="113.8"/>
<line class="st0" x1="107.4" y1="113.8" x2="123.1" y2="113.8"/>
<line class="st0" x1="88.8" y1="113.8" x2="104.5" y2="113.8"/>
<line class="st0" x1="124.5" y1="113.8" x2="140.1" y2="113.8"/>
<line class="st0" x1="71.8" y1="138.2" x2="87.4" y2="138.2"/>
<line class="st0" x1="107.4" y1="138.2" x2="123.1" y2="138.2"/>
<line class="st0" x1="88.8" y1="138.2" x2="104.5" y2="138.2"/>
<line class="st0" x1="88.8" y1="162.7" x2="104.5" y2="162.7"/>
<line class="st0" x1="124.5" y1="138.2" x2="140.1" y2="138.2"/>
<line class="st0" x1="71.8" y1="158.6" x2="87.4" y2="158.6"/>
<line class="st0" x1="71.8" y1="166.8" x2="87.4" y2="166.8"/>
<line class="st0" x1="107.4" y1="158.6" x2="123.1" y2="158.6"/>
<line class="st0" x1="107.4" y1="170.9" x2="123.1" y2="170.9"/>
<line class="st0" x1="124.5" y1="170.9" x2="140.1" y2="170.9"/>
<line class="st0" x1="88.8" y1="158.6" x2="104.5" y2="158.6"/>
<line class="st0" x1="124.5" y1="158.6" x2="140.1" y2="158.6"/>
<line class="st0" x1="71.8" y1="103.6" x2="87.4" y2="103.6"/>
<line class="st0" x1="107.4" y1="103.6" x2="123.1" y2="103.6"/>
<line class="st0" x1="88.8" y1="103.6" x2="104.5" y2="103.6"/>
<line class="st0" x1="124.5" y1="103.6" x2="140.1" y2="103.6"/>
<line class="st0" x1="71.8" y1="128.1" x2="87.4" y2="128.1"/>
<line class="st0" x1="107.4" y1="128.1" x2="123.1" y2="128.1"/>
<line class="st0" x1="88.8" y1="128.1" x2="104.5" y2="128.1"/>
<line class="st0" x1="124.5" y1="128.1" x2="140.1" y2="128.1"/>
<line class="st0" x1="71.8" y1="148.4" x2="87.4" y2="148.4"/>
<line class="st0" x1="107.4" y1="148.4" x2="123.1" y2="148.4"/>
<line class="st0" x1="107.4" y1="160.7" x2="123.1" y2="160.7"/>
<line class="st0" x1="124.5" y1="160.7" x2="140.1" y2="160.7"/>
<line class="st0" x1="88.8" y1="148.4" x2="104.5" y2="148.4"/>
<line class="st0" x1="124.5" y1="148.4" x2="140.1" y2="148.4"/>
<line class="st0" x1="71.8" y1="115.8" x2="87.4" y2="115.8"/>
<line class="st0" x1="107.4" y1="115.8" x2="123.1" y2="115.8"/>
<line class="st0" x1="88.8" y1="115.8" x2="104.5" y2="115.8"/>
<line class="st0" x1="124.5" y1="115.8" x2="140.1" y2="115.8"/>
<line class="st0" x1="71.8" y1="140.3" x2="87.4" y2="140.3"/>
<line class="st0" x1="107.4" y1="140.3" x2="123.1" y2="140.3"/>
<line class="st0" x1="88.8" y1="140.3" x2="104.5" y2="140.3"/>
<line class="st0" x1="88.8" y1="164.7" x2="104.5" y2="164.7"/>
<line class="st0" x1="124.5" y1="140.3" x2="140.1" y2="140.3"/>
<line class="st0" x1="71.8" y1="105.6" x2="87.4" y2="105.6"/>
<line class="st0" x1="107.4" y1="105.6" x2="123.1" y2="105.6"/>
<line class="st0" x1="88.8" y1="105.6" x2="104.5" y2="105.6"/>
<line class="st0" x1="124.5" y1="105.6" x2="140.1" y2="105.6"/>
<line class="st0" x1="71.8" y1="130.1" x2="87.4" y2="130.1"/>
<line class="st0" x1="107.4" y1="130.1" x2="123.1" y2="130.1"/>
<line class="st0" x1="88.8" y1="130.1" x2="104.5" y2="130.1"/>
<line class="st0" x1="124.5" y1="130.1" x2="140.1" y2="130.1"/>
<line class="st0" x1="71.8" y1="150.5" x2="87.4" y2="150.5"/>
<line class="st0" x1="107.4" y1="150.5" x2="123.1" y2="150.5"/>
<line class="st0" x1="107.4" y1="162.7" x2="123.1" y2="162.7"/>
<line class="st0" x1="124.5" y1="162.7" x2="140.1" y2="162.7"/>
<line class="st0" x1="88.8" y1="150.5" x2="104.5" y2="150.5"/>
<line class="st0" x1="124.5" y1="150.5" x2="140.1" y2="150.5"/>
<line class="st0" x1="71.8" y1="117.9" x2="87.4" y2="117.9"/>
<line class="st0" x1="107.4" y1="117.9" x2="123.1" y2="117.9"/>
<line class="st0" x1="88.8" y1="117.9" x2="104.5" y2="117.9"/>
<line class="st0" x1="124.5" y1="117.9" x2="140.1" y2="117.9"/>
<line class="st0" x1="71.8" y1="142.3" x2="87.4" y2="142.3"/>
<line class="st0" x1="107.4" y1="142.3" x2="123.1" y2="142.3"/>
<line class="st0" x1="88.8" y1="142.3" x2="104.5" y2="142.3"/>
<line class="st0" x1="88.8" y1="166.8" x2="104.5" y2="166.8"/>
<line class="st0" x1="124.5" y1="142.3" x2="140.1" y2="142.3"/>
<line class="st0" x1="71.8" y1="107.7" x2="87.4" y2="107.7"/>
<line class="st0" x1="107.4" y1="107.7" x2="123.1" y2="107.7"/>
<line class="st0" x1="88.8" y1="107.7" x2="104.5" y2="107.7"/>
<line class="st0" x1="124.5" y1="107.7" x2="140.1" y2="107.7"/>
<line class="st0" x1="71.8" y1="132.1" x2="87.4" y2="132.1"/>
<line class="st0" x1="107.4" y1="132.1" x2="123.1" y2="132.1"/>
<line class="st0" x1="88.8" y1="132.1" x2="104.5" y2="132.1"/>
<line class="st0" x1="124.5" y1="132.1" x2="140.1" y2="132.1"/>
<line class="st0" x1="71.8" y1="152.5" x2="87.4" y2="152.5"/>
<line class="st0" x1="71.8" y1="160.7" x2="87.4" y2="160.7"/>
<line class="st0" x1="107.4" y1="152.5" x2="123.1" y2="152.5"/>
<line class="st0" x1="107.4" y1="164.7" x2="123.1" y2="164.7"/>
<line class="st0" x1="124.5" y1="164.7" x2="140.1" y2="164.7"/>
<line class="st0" x1="88.8" y1="152.5" x2="104.5" y2="152.5"/>
<line class="st0" x1="124.5" y1="152.5" x2="140.1" y2="152.5"/>
<line class="st0" x1="71.8" y1="119.9" x2="87.4" y2="119.9"/>
<line class="st0" x1="107.4" y1="119.9" x2="123.1" y2="119.9"/>
<line class="st0" x1="88.8" y1="119.9" x2="104.5" y2="119.9"/>
<line class="st0" x1="124.5" y1="119.9" x2="140.1" y2="119.9"/>
<line class="st0" x1="71.8" y1="144.4" x2="87.4" y2="144.4"/>
<line class="st0" x1="107.4" y1="144.4" x2="123.1" y2="144.4"/>
<line class="st0" x1="88.8" y1="144.4" x2="104.5" y2="144.4"/>
<line class="st0" x1="88.8" y1="168.8" x2="104.5" y2="168.8"/>
<line class="st0" x1="71.8" y1="168.8" x2="87.4" y2="168.8"/>
<line class="st0" x1="124.5" y1="144.4" x2="140.1" y2="144.4"/>
<line class="st0" x1="71.8" y1="109.7" x2="87.4" y2="109.7"/>
<line class="st0" x1="107.4" y1="109.7" x2="123.1" y2="109.7"/>
<line class="st0" x1="88.8" y1="109.7" x2="104.5" y2="109.7"/>
<line class="st0" x1="124.5" y1="109.7" x2="140.1" y2="109.7"/>
<line class="st0" x1="71.8" y1="134.2" x2="87.4" y2="134.2"/>
<line class="st0" x1="107.4" y1="134.2" x2="123.1" y2="134.2"/>
<line class="st0" x1="88.8" y1="134.2" x2="104.5" y2="134.2"/>
<line class="st0" x1="124.5" y1="134.2" x2="140.1" y2="134.2"/>
<line class="st0" x1="71.8" y1="154.6" x2="87.4" y2="154.6"/>
<line class="st0" x1="71.8" y1="162.7" x2="87.4" y2="162.7"/>
<line class="st0" x1="107.4" y1="154.6" x2="123.1" y2="154.6"/>
<line class="st0" x1="107.4" y1="166.8" x2="123.1" y2="166.8"/>
<line class="st0" x1="124.5" y1="166.8" x2="140.1" y2="166.8"/>
<line class="st0" x1="88.8" y1="154.6" x2="104.5" y2="154.6"/>
<line class="st0" x1="124.5" y1="154.6" x2="140.1" y2="154.6"/>
<line class="st0" x1="71.8" y1="121.9" x2="87.4" y2="121.9"/>
<line class="st0" x1="107.4" y1="121.9" x2="123.1" y2="121.9"/>
<line class="st0" x1="88.8" y1="121.9" x2="104.5" y2="121.9"/>
<line class="st0" x1="124.5" y1="121.9" x2="140.1" y2="121.9"/>
<line class="st0" x1="71.8" y1="146.4" x2="87.4" y2="146.4"/>
<line class="st0" x1="107.4" y1="146.4" x2="123.1" y2="146.4"/>
<line class="st0" x1="88.8" y1="146.4" x2="104.5" y2="146.4"/>
<line class="st0" x1="88.8" y1="170.9" x2="104.5" y2="170.9"/>
<line class="st0" x1="71.8" y1="170.9" x2="87.4" y2="170.9"/>
<line class="st1" x1="71.8" y1="176.1" x2="87.4" y2="176.1"/>
<line class="st1" x1="107.4" y1="176.1" x2="123.1" y2="176.1"/>
<line class="st1" x1="88.8" y1="176.1" x2="104.5" y2="176.1"/>
<line class="st1" x1="124.5" y1="176.1" x2="140.1" y2="176.1"/>
<line class="st1" x1="71.8" y1="174.3" x2="87.4" y2="174.3"/>
<line class="st1" x1="107.4" y1="174.3" x2="123.1" y2="174.3"/>
<line class="st1" x1="88.8" y1="174.3" x2="104.5" y2="174.3"/>
<line class="st1" x1="124.5" y1="174.3" x2="140.1" y2="174.3"/>
<line class="st1" x1="71.8" y1="179.8" x2="87.4" y2="179.8"/>
<line class="st1" x1="107.4" y1="179.8" x2="123.1" y2="179.8"/>
<line class="st1" x1="88.8" y1="179.8" x2="104.5" y2="179.8"/>
<line class="st1" x1="124.5" y1="179.8" x2="140.1" y2="179.8"/>
<line class="st1" x1="71.8" y1="177.9" x2="87.4" y2="177.9"/>
<line class="st1" x1="107.4" y1="177.9" x2="123.1" y2="177.9"/>
<line class="st1" x1="88.8" y1="177.9" x2="104.5" y2="177.9"/>
<line class="st1" x1="124.5" y1="177.9" x2="140.1" y2="177.9"/>
<line class="st1" x1="71.8" y1="181.6" x2="87.4" y2="181.6"/>
<line class="st1" x1="107.4" y1="181.6" x2="123.1" y2="181.6"/>
<line class="st1" x1="88.8" y1="181.6" x2="104.5" y2="181.6"/>
<line class="st1" x1="124.5" y1="181.6" x2="140.1" y2="181.6"/>
<line class="st1" x1="71.8" y1="177" x2="87.4" y2="177"/>
<line class="st1" x1="107.4" y1="177" x2="123.1" y2="177"/>
<line class="st1" x1="88.8" y1="177" x2="104.5" y2="177"/>
<line class="st1" x1="124.5" y1="177" x2="140.1" y2="177"/>
<line class="st1" x1="71.8" y1="175.2" x2="87.4" y2="175.2"/>
<line class="st1" x1="107.4" y1="175.2" x2="123.1" y2="175.2"/>
<line class="st1" x1="88.8" y1="175.2" x2="104.5" y2="175.2"/>
<line class="st1" x1="124.5" y1="175.2" x2="140.1" y2="175.2"/>
<line class="st1" x1="71.8" y1="180.7" x2="87.4" y2="180.7"/>
<line class="st1" x1="107.4" y1="180.7" x2="123.1" y2="180.7"/>
<line class="st1" x1="88.8" y1="180.7" x2="104.5" y2="180.7"/>
<line class="st1" x1="124.5" y1="180.7" x2="140.1" y2="180.7"/>
<line class="st1" x1="71.8" y1="178.9" x2="87.4" y2="178.9"/>
<line class="st1" x1="107.4" y1="178.9" x2="123.1" y2="178.9"/>
<line class="st1" x1="88.8" y1="178.9" x2="104.5" y2="178.9"/>
<line class="st1" x1="124.5" y1="178.9" x2="140.1" y2="178.9"/>
<line class="st1" x1="71.8" y1="182.5" x2="87.4" y2="182.5"/>
<line class="st1" x1="107.4" y1="182.5" x2="123.1" y2="182.5"/>
<line class="st1" x1="88.8" y1="182.5" x2="104.5" y2="182.5"/>
<line class="st1" x1="124.5" y1="182.5" x2="140.1" y2="182.5"/>
<line class="st1" x1="71.8" y1="183.4" x2="87.4" y2="183.4"/>
<line class="st1" x1="107.4" y1="183.4" x2="123.1" y2="183.4"/>
<line class="st1" x1="88.8" y1="183.4" x2="104.5" y2="183.4"/>
<line class="st1" x1="124.5" y1="183.4" x2="140.1" y2="183.4"/>
<line class="st0" x1="124.5" y1="146.4" x2="140.1" y2="146.4"/>
<g>
	<defs>
		<rect id="SVGID_3_" x="70.2" y="94.4" width="143.2" height="93.8"/>
	</defs>
	<clipPath id="SVGID_4_">
		<use xlink:href="#SVGID_3_"  style="overflow:visible;"/>
	</clipPath>
	<rect x="70.3" y="94.5" class="st3" width="71.4" height="93.6"/>
</g>
</svg>
