<?xml version="1.0" encoding="utf-8"?>
<!-- Generator: Adobe Illustrator 22.0.0, SVG Export Plug-In . SVG Version: 6.00 Build 0)  -->
<svg version="1.1" id="Ebene_1" xmlns="http://www.w3.org/2000/svg" xmlns:xlink="http://www.w3.org/1999/xlink" x="0px" y="0px"
	 viewBox="0 0 283.5 283.5" style="enable-background:new 0 0 283.5 283.5;" xml:space="preserve">
<style type="text/css">
	.st0{clip-path:url(#SVGID_2_);}
	.st1{filter:url(#Adobe_OpacityMaskFilter);}
	.st2{clip-path:url(#SVGID_4_);}
	.st3{clip-path:url(#SVGID_4_);mask:url(#SVGID_5_);}
	.st4{opacity:9.994510e-03;clip-path:url(#SVGID_9_);fill:#ADB1B1;}
	.st5{clip-path:url(#SVGID_2_);fill:#FFFFFF;}
	.st6{clip-path:url(#SVGID_11_);fill:none;stroke:#000000;stroke-width:0.2;}
	.st7{filter:url(#Adobe_OpacityMaskFilter_1_);}
	.st8{clip-path:url(#SVGID_11_);}
	.st9{clip-path:url(#SVGID_11_);mask:url(#SVGID_12_);}
	.st10{opacity:9.994510e-03;clip-path:url(#SVGID_16_);fill:#ADB1B1;}
	.st11{clip-path:url(#SVGID_18_);fill:none;stroke:#000000;stroke-width:0.2;}
	.st12{clip-path:url(#SVGID_2_);fill:none;stroke:#000000;stroke-width:0.25;}
</style>
<g>
	<defs>
		<rect id="SVGID_1_" x="59.5" y="85.3" width="164.4" height="112.8"/>
	</defs>
	<clipPath id="SVGID_2_">
		<use xlink:href="#SVGID_1_"  style="overflow:visible;"/>
	</clipPath>
	<g class="st0">
		<defs>
			<rect id="SVGID_3_" x="59.5" y="85.3" width="164.4" height="112.8"/>
		</defs>
		<clipPath id="SVGID_4_">
			<use xlink:href="#SVGID_3_"  style="overflow:visible;"/>
		</clipPath>
		<defs>
			<filter id="Adobe_OpacityMaskFilter" filterUnits="userSpaceOnUse" x="61.3" y="86.7" width="92.6" height="123.8">
				<feColorMatrix  type="matrix" values="1 0 0 0 0  0 1 0 0 0  0 0 1 0 0  0 0 0 1 0"/>
			</filter>
		</defs>
		<mask maskUnits="userSpaceOnUse" x="61.3" y="86.7" width="92.6" height="123.8" id="SVGID_5_">
			<g class="st1">
				<g>
					<defs>
						<rect id="SVGID_6_" x="51.2" y="79" width="113.3" height="134.4"/>
					</defs>
					<clipPath id="SVGID_7_" class="st2">
						<use xlink:href="#SVGID_6_"  style="overflow:visible;"/>
					</clipPath>
					<g style="clip-path:url(#SVGID_7_);">
						
							<image style="overflow:visible;" width="236" height="280" xlink:href="9DCF3329B45D2F49.jpg"  transform="matrix(0.48 0 0 0.48 51.2465 79.0458)">
						</image>
					</g>
				</g>
			</g>
		</mask>
		<g class="st3">
			<g>
				<defs>
					<rect id="SVGID_8_" x="61.3" y="86.7" width="92.6" height="123.8"/>
				</defs>
				<clipPath id="SVGID_9_">
					<use xlink:href="#SVGID_8_"  style="overflow:visible;"/>
				</clipPath>
				<rect x="61.3" y="86.7" class="st4" width="92.6" height="123.8"/>
			</g>
		</g>
	</g>
	<rect x="59.6" y="85.4" class="st5" width="82" height="112.6"/>
	<g class="st0">
		<defs>
			<rect id="SVGID_10_" x="59.5" y="85.3" width="164.4" height="112.8"/>
		</defs>
		<clipPath id="SVGID_11_">
			<use xlink:href="#SVGID_10_"  style="overflow:visible;"/>
		</clipPath>
		<rect x="59.6" y="85.4" class="st6" width="82" height="112.6"/>
		<defs>
			<filter id="Adobe_OpacityMaskFilter_1_" filterUnits="userSpaceOnUse" x="143.5" y="86.7" width="92.6" height="123.8">
				<feColorMatrix  type="matrix" values="1 0 0 0 0  0 1 0 0 0  0 0 1 0 0  0 0 0 1 0"/>
			</filter>
		</defs>
		<mask maskUnits="userSpaceOnUse" x="143.5" y="86.7" width="92.6" height="123.8" id="SVGID_12_">
			<g class="st7">
				<g>
					<defs>
						<rect id="SVGID_13_" x="133.4" y="79" width="113.3" height="134.4"/>
					</defs>
					<clipPath id="SVGID_14_" class="st8">
						<use xlink:href="#SVGID_13_"  style="overflow:visible;"/>
					</clipPath>
					<g style="clip-path:url(#SVGID_14_);">
						
							<image style="overflow:visible;" width="236" height="280" xlink:href="9DCF3329B45D2F4B.jpg"  transform="matrix(0.48 0 0 0.48 133.4499 79.0458)">
						</image>
					</g>
				</g>
			</g>
		</mask>
		<g class="st9">
			<g>
				<defs>
					<rect id="SVGID_15_" x="143.5" y="86.7" width="92.6" height="123.8"/>
				</defs>
				<clipPath id="SVGID_16_">
					<use xlink:href="#SVGID_15_"  style="overflow:visible;"/>
				</clipPath>
				<rect x="143.5" y="86.7" class="st10" width="92.6" height="123.8"/>
			</g>
		</g>
	</g>
	<rect x="141.8" y="85.4" class="st5" width="82" height="112.6"/>
	<g class="st0">
		<defs>
			<rect id="SVGID_17_" x="59.5" y="85.3" width="164.4" height="112.8"/>
		</defs>
		<clipPath id="SVGID_18_">
			<use xlink:href="#SVGID_17_"  style="overflow:visible;"/>
		</clipPath>
		<rect x="141.8" y="85.4" class="st11" width="82" height="112.6"/>
	</g>
	<line class="st12" x1="97.1" y1="146.5" x2="116.5" y2="146.5"/>
	<line class="st12" x1="69.5" y1="160.1" x2="81.5" y2="160.1"/>
	<line class="st12" x1="99.1" y1="164.6" x2="130.9" y2="164.6"/>
	<line class="st12" x1="69.5" y1="180.4" x2="90.5" y2="180.4"/>
	<line class="st12" x1="97.1" y1="173.6" x2="128.6" y2="173.6"/>
	<line class="st12" x1="97.1" y1="189.4" x2="128.6" y2="189.4"/>
	<line class="st12" x1="97.1" y1="180.4" x2="130.6" y2="180.4"/>
	<line class="st12" x1="69.5" y1="139.8" x2="89" y2="139.8"/>
	<line class="st12" x1="69.5" y1="182.7" x2="89" y2="182.7"/>
	<line class="st12" x1="69.5" y1="146.6" x2="91.1" y2="146.6"/>
	<line class="st12" x1="69.5" y1="189.4" x2="91.1" y2="189.4"/>
	<line class="st12" x1="69.5" y1="124.1" x2="91.1" y2="124.1"/>
	<line class="st12" x1="97.1" y1="148.8" x2="131.9" y2="148.8"/>
	<line class="st12" x1="97.1" y1="166.9" x2="129.7" y2="166.9"/>
	<line class="st12" x1="97.1" y1="178.2" x2="129.7" y2="178.2"/>
	<line class="st12" x1="97.1" y1="184.9" x2="129.7" y2="184.9"/>
	<line class="st12" x1="69.5" y1="133.1" x2="89.7" y2="133.1"/>
	<line class="st12" x1="97.1" y1="175.9" x2="131.9" y2="175.9"/>
	<line class="st12" x1="97.1" y1="187.2" x2="131.9" y2="187.2"/>
	<line class="st12" x1="69.5" y1="142.1" x2="91.1" y2="142.1"/>
	<line class="st12" x1="69.5" y1="184.9" x2="91.1" y2="184.9"/>
	<line class="st12" x1="69.5" y1="148.9" x2="91.1" y2="148.9"/>
	<line class="st12" x1="97.1" y1="155.6" x2="129.9" y2="155.6"/>
	<line class="st12" x1="69.5" y1="171.4" x2="89.8" y2="171.4"/>
	<line class="st12" x1="97.1" y1="151" x2="128.6" y2="151"/>
	<line class="st12" x1="71.5" y1="162.4" x2="89" y2="162.4"/>
	<line class="st12" x1="97.1" y1="142.1" x2="125.9" y2="142.1"/>
	<line class="st12" x1="69.5" y1="151.1" x2="88.5" y2="151.1"/>
	<line class="st12" x1="71.5" y1="128.6" x2="88.5" y2="128.6"/>
	<line class="st12" x1="97.1" y1="157.9" x2="131.9" y2="157.9"/>
	<line class="st12" x1="69.5" y1="173.6" x2="91.1" y2="173.6"/>
	<line class="st12" x1="69.5" y1="117.3" x2="91.1" y2="117.3"/>
	<line class="st12" x1="69.5" y1="153.4" x2="91.1" y2="153.4"/>
	<line class="st12" x1="69.5" y1="130.8" x2="91.1" y2="130.8"/>
	<line class="st12" x1="97.1" y1="160.1" x2="130.9" y2="160.1"/>
	<line class="st12" x1="69.5" y1="175.9" x2="90.5" y2="175.9"/>
	<line class="st12" x1="69.5" y1="119.5" x2="90.4" y2="119.5"/>
	<line class="st12" x1="69.5" y1="178.2" x2="86.1" y2="178.2"/>
	<line class="st12" x1="69.5" y1="121.8" x2="86.7" y2="121.8"/>
	<line class="st12" x1="97.1" y1="169.1" x2="131.4" y2="169.1"/>
	<line class="st12" x1="69.5" y1="135.3" x2="90.8" y2="135.3"/>
	<line class="st12" x1="99.1" y1="139.7" x2="130.2" y2="139.7"/>
	<line class="st12" x1="69.5" y1="166.9" x2="89.8" y2="166.9"/>
	<line class="st12" x1="69.5" y1="157.9" x2="88" y2="157.9"/>
	<line class="st12" x1="69.5" y1="144.3" x2="89.8" y2="144.3"/>
	<line class="st12" x1="69.5" y1="187.2" x2="89.8" y2="187.2"/>
	<line class="st12" x1="97.1" y1="144.3" x2="127.8" y2="144.3"/>
	<line class="st12" x1="69.5" y1="155.6" x2="86.9" y2="155.6"/>
	<line class="st12" x1="97.1" y1="162.4" x2="110.4" y2="162.4"/>
	<line class="st12" x1="97.1" y1="171.4" x2="123.9" y2="171.4"/>
	<line class="st12" x1="97.1" y1="182.7" x2="123.9" y2="182.7"/>
	<line class="st12" x1="69.5" y1="137.6" x2="84.1" y2="137.6"/>
	<line class="st12" x1="97.1" y1="153.3" x2="131.9" y2="153.3"/>
	<line class="st12" x1="69.5" y1="169.1" x2="91.1" y2="169.1"/>
	<line class="st12" x1="69.5" y1="164.6" x2="91.1" y2="164.6"/>
	<line class="st12" x1="163.9" y1="143.8" x2="201.8" y2="143.8"/>
	<line class="st12" x1="163.9" y1="152.9" x2="201.8" y2="152.9"/>
	<line class="st12" x1="163.9" y1="134.8" x2="201.8" y2="134.8"/>
	<line class="st12" x1="163.9" y1="125.8" x2="201.8" y2="125.8"/>
	<line class="st12" x1="163.9" y1="130.3" x2="201.8" y2="130.3"/>
	<line class="st12" x1="163.9" y1="148.3" x2="201.8" y2="148.3"/>
	<line class="st12" x1="163.9" y1="157.4" x2="201.8" y2="157.4"/>
</g>
</svg>
