<?xml version="1.0" encoding="utf-8"?>
<!-- Generator: Adobe Illustrator 22.0.0, SVG Export Plug-In . SVG Version: 6.00 Build 0)  -->
<svg version="1.1" id="Ebene_1" xmlns="http://www.w3.org/2000/svg" xmlns:xlink="http://www.w3.org/1999/xlink" x="0px" y="0px"
	 viewBox="0 0 283.5 283.5" style="enable-background:new 0 0 283.5 283.5;" xml:space="preserve">
<style type="text/css">
	.st0{fill:#FFFFFF;}
</style>
<g>
	<g>
		<line class="st0" x1="97.2" y1="85.7" x2="150.7" y2="66.8"/>
		<g>
			<path d="M97.3,86.2c17.8-6.3,35.7-12.6,53.5-18.9c0.6-0.2,0.3-1.2-0.3-1c-17.8,6.3-35.7,12.6-53.5,18.9
				C96.5,85.4,96.7,86.4,97.3,86.2L97.3,86.2z"/>
		</g>
	</g>
	<g>
		<polygon class="st0" points="102.4,196.5 97.2,196.1 97.2,85.9 102.4,86.3 		"/>
		<g>
			<path d="M102.4,196c-1.7-0.1-3.4-0.3-5.2-0.4c0.2,0.2,0.3,0.3,0.5,0.5c0-24,0-48,0-72.1c0-12.7,0-25.4,0-38.1
				c-0.2,0.2-0.3,0.3-0.5,0.5c1.7,0.1,3.4,0.3,5.2,0.4c-0.2-0.2-0.3-0.3-0.5-0.5c0,24,0,48,0,72.1c0,12.7,0,25.4,0,38.1
				c0,0.6,1,0.6,1,0c0-24,0-48,0-72.1c0-12.7,0-25.4,0-38.1c0-0.3-0.2-0.5-0.5-0.5c-1.7-0.1-3.4-0.3-5.2-0.4c-0.3,0-0.5,0.2-0.5,0.5
				c0,24,0,48,0,72.1c0,12.7,0,25.4,0,38.1c0,0.3,0.2,0.5,0.5,0.5c1.7,0.1,3.4,0.3,5.2,0.4C103,197.1,103,196.1,102.4,196z"/>
		</g>
	</g>
	<g>
		<polyline class="st0" points="120.7,190 102.4,196.5 102.4,86.3 155.9,67.4 155.9,72.4 		"/>
		<g>
			<path d="M120.6,189.5c-6.1,2.2-12.2,4.3-18.3,6.5c0.2,0.2,0.4,0.3,0.6,0.5c0-24,0-48,0-72.1c0-11.8,0-23.6,0-35.4
				c0-0.9,0-1.7,0-2.6c0-0.3-0.7,0.5-0.1,0.3c0.6-0.2,1.2-0.4,1.8-0.6c5.8-2.1,11.7-4.1,17.5-6.2c11.3-4,22.6-8,33.9-12
				c-0.2-0.2-0.4-0.3-0.6-0.5c0,1.7,0,3.3,0,5c0,0.6,1,0.6,1,0c0-1.7,0-3.3,0-5c0-0.3-0.3-0.6-0.6-0.5
				c-17.8,6.3-35.7,12.6-53.5,18.9c-0.2,0.1-0.4,0.2-0.4,0.5c0,24,0,48,0,72.1c0,12.7,0,25.4,0,38.1c0,0.3,0.3,0.6,0.6,0.5
				c6.1-2.2,12.2-4.3,18.3-6.5C121.4,190.3,121.2,189.3,120.6,189.5L120.6,189.5z"/>
		</g>
	</g>
</g>
<g>
	<g>
		<line class="st0" x1="120.7" y1="86.6" x2="169" y2="67.1"/>
		<g>
			<path d="M120.8,87.1c16.1-6.5,32.2-13,48.3-19.5c0.6-0.2,0.3-1.2-0.3-1c-16.1,6.5-32.2,13-48.3,19.5
				C120,86.4,120.2,87.3,120.8,87.1L120.8,87.1z"/>
		</g>
	</g>
	<g>
		<polyline class="st0" points="141,189.6 120.7,196.8 120.7,86.6 174.2,67.7 174.2,74.7 		"/>
		<g>
			<path d="M140.8,189.1c-6.8,2.4-13.5,4.8-20.3,7.2c0.2,0.2,0.4,0.3,0.6,0.5c0-24,0-48,0-72.1c0-11.8,0-23.6,0-35.4
				c0-0.9,0-1.7,0-2.6c0-0.3-0.7,0.5-0.1,0.3c0.6-0.2,1.2-0.4,1.8-0.6c5.8-2.1,11.7-4.1,17.5-6.2c11.3-4,22.6-8,33.9-12
				c-0.2-0.2-0.4-0.3-0.6-0.5c0,2.3,0,4.6,0,7c0,0.6,1,0.6,1,0c0-2.3,0-4.6,0-7c0-0.3-0.3-0.6-0.6-0.5
				c-17.8,6.3-35.7,12.6-53.5,18.9c-0.2,0.1-0.4,0.2-0.4,0.5c0,24,0,48,0,72.1c0,12.7,0,25.4,0,38.1c0,0.3,0.3,0.6,0.6,0.5
				c6.8-2.4,13.5-4.8,20.3-7.2C141.7,189.9,141.5,188.9,140.8,189.1L140.8,189.1z"/>
		</g>
	</g>
</g>
<g>
	<g>
		<line class="st0" x1="141" y1="86.4" x2="194.5" y2="67.5"/>
		<g>
			<path d="M141.1,86.9c17.8-6.3,35.7-12.6,53.5-18.9c0.6-0.2,0.3-1.2-0.3-1c-17.8,6.3-35.7,12.6-53.5,18.9
				C140.2,86.1,140.5,87.1,141.1,86.9L141.1,86.9z"/>
		</g>
	</g>
	<g>
		<polygon class="st0" points="143.6,197 141,196.6 141,86.4 143.6,86.8 		"/>
		<g>
			<path d="M143.7,196.5c-0.7-0.1-1.5-0.2-2.2-0.4c-0.7-0.1,0,0.5,0,0.3c0-0.3,0-0.6,0-0.9c0-1.4,0-2.8,0-4.2c0-5.4,0-10.7,0-16.1
				c0-15.8,0-31.7,0-47.5c0-13.8,0-27.7,0-41.5c-0.2,0.2-0.4,0.3-0.6,0.5c0.7,0.1,1.5,0.2,2.2,0.4c0.7,0.1,0-0.5,0-0.3
				c0,0.3,0,0.6,0,0.9c0,1.4,0,2.8,0,4.2c0,5.4,0,10.7,0,16.1c0,15.8,0,31.7,0,47.5c0,13.8,0,27.7,0,41.5c0,0.6,1,0.6,1,0
				c0-24,0-48,0-72.1c0-12.7,0-25.4,0-38.1c0-0.2-0.2-0.4-0.4-0.5c-0.9-0.1-1.7-0.3-2.6-0.4c-0.3-0.1-0.6,0.1-0.6,0.5
				c0,24,0,48,0,72.1c0,12.7,0,25.4,0,38.1c0,0.2,0.2,0.4,0.4,0.5c0.9,0.1,1.7,0.3,2.6,0.4C144.1,197.6,144.3,196.6,143.7,196.5z"/>
		</g>
	</g>
	<g>
		<polygon class="st0" points="197.1,178.1 143.6,197 143.6,86.8 197.1,67.9 		"/>
		<g>
			<path d="M196.9,177.6c-17.8,6.3-35.7,12.6-53.5,18.9c0.2,0.2,0.4,0.3,0.6,0.5c0-24,0-48,0-72.1c0-11.8,0-23.6,0-35.4
				c0-0.9,0-1.7,0-2.6c0-0.3-0.7,0.5-0.1,0.3c0.6-0.2,1.2-0.4,1.8-0.6c5.8-2.1,11.7-4.1,17.5-6.2c11.3-4,22.6-8,33.9-12
				c-0.2-0.2-0.4-0.3-0.6-0.5c0,24,0,48,0,72.1c0,12.7,0,25.4,0,38.1c0,0.6,1,0.6,1,0c0-24,0-48,0-72.1c0-12.7,0-25.4,0-38.1
				c0-0.3-0.3-0.6-0.6-0.5c-17.8,6.3-35.7,12.6-53.5,18.9c-0.2,0.1-0.4,0.2-0.4,0.5c0,24,0,48,0,72.1c0,12.7,0,25.4,0,38.1
				c0,0.3,0.3,0.6,0.6,0.5c17.8-6.3,35.7-12.6,53.5-18.9C197.8,178.4,197.5,177.4,196.9,177.6z"/>
		</g>
	</g>
</g>
</svg>
