<?xml version="1.0" encoding="utf-8"?>
<!-- Generator: Adobe Illustrator 22.0.0, SVG Export Plug-In . SVG Version: 6.00 Build 0)  -->
<svg version="1.1" id="Ebene_1" xmlns="http://www.w3.org/2000/svg" xmlns:xlink="http://www.w3.org/1999/xlink" x="0px" y="0px"
	 viewBox="0 0 571.1 568.3" style="enable-background:new 0 0 571.1 568.3;" xml:space="preserve">
<style type="text/css">
	.st0{clip-path:url(#SVGID_2_);fill:url(#SVGID_3_);}
</style>
<g>
	<defs>
		<rect id="SVGID_1_" x="9" y="225.4" width="552.6" height="117.6"/>
	</defs>
	<clipPath id="SVGID_2_">
		<use xlink:href="#SVGID_1_"  style="overflow:visible;"/>
	</clipPath>
	
		<linearGradient id="SVGID_3_" gradientUnits="userSpaceOnUse" x1="-114.885" y1="686.5346" x2="-113.885" y2="686.5346" gradientTransform="matrix(551.497 0 0 -551.497 63368.3555 378905.9375)">
		<stop  offset="0" style="stop-color:#B71E72"/>
		<stop  offset="1.593410e-03" style="stop-color:#B71E72"/>
		<stop  offset="0.6581" style="stop-color:#981842"/>
		<stop  offset="1" style="stop-color:#8B162E"/>
	</linearGradient>
	<path class="st0" d="M522.3,325.7l0.5,0.1l-3.7,13.8h17.5l3.6-13.4h-17.9V325.7l0.5,0.1L522.3,325.7v-0.5h19.2l-4.2,15.4h-19.6
		l4.2-15.4h0.4V325.7z M151.2,262v0.5h-17.6l6.2-10.6l0,0c2.6-4.3,4.9-8.5,6.4-12.2l0.1-0.3h0.6h0.4l0.1,0.4c0.5,3.8,1,7.7,2.1,12.2
		l0,0l2.4,10.5h-0.6V262l-0.5,0.1l-2.2-9.8l0.5-0.1l-0.5,0.1c-1.1-4.5-1.6-8.5-2.1-12.3l0.5-0.1v0.5h-0.2v-0.5l0.5,0.2
		c-1.5,3.7-3.9,8-6.4,12.3l0,0l-5.3,9.1h15.8V262l-0.5,0.1L151.2,262z M176.7,282.3l-0.5,0.1l-15.5-53.7h-25.9l-35.2,55h-3.9l9.7-55
		H74.1l-14.7,29.2l0,0c-1.4,2.8-2.7,5.1-3.4,7.2l-0.1,0.3h-0.5h-0.5l0-0.5c0-0.3,0-0.6,0-1c0-1.8-0.3-3.7-0.7-6l0,0l-4.9-29.2H20.6
		l-9.8,55.8h16.7l5.4-30.8l0,0c0.7-3.8,1.2-8.2,1.3-11.9l0-0.5h0.8h0.5l0,0.5c0.2,2.7,0.7,7,1.7,11.4l0,0l5.8,31.4h18.3l17.8-31.7
		l0,0c2.2-3.9,4.3-8.1,5.8-11.2l0.1-0.3h0.7h0.7l-0.2,0.7c-1.4,4.1-2.5,8.4-3.2,11.9l0,0l-5.3,29.8h-7.7l-9.8,55.8h58.9l1.4-7.9
		l0.5,0.1l-0.4,0.4c-0.5-0.5-1-1-1.4-1.6l-0.3-0.4l2.2-1.7l0.3-1.7H82.2l1.7-9.6h37.5l2-11.6H85.8l1.6-9.1h39l2.2-12.8h-7.3l5.9-10
		h27.4l1.9,8.3l-0.6,0c-20.6,1.8-25.3,11.2-25.3,19.1c0,11,9.9,15.2,20.6,16.5l0,0l14.1,1.8l-0.1,0.5l0.1-0.5
		c4.2,0.4,6.2,1.5,6.2,3.9c-0.1,3.4-3.7,5.1-11.7,5.1c-8.6,0-18.3-2.6-25.1-9.3l0.4-0.4l0.3,0.4l-13.1,9.8l-0.5,2.8l-0.5-0.1
		l0.4-0.4c7.4,7.4,20.1,10.1,36.3,10.1c28.3-0.1,33.6-11.5,33.7-20.5c0-11.8-9.8-14.8-21.1-16.2l0,0l-13.3-1.5l0,0
		c-5.1-0.6-7-1.6-7-4.1c0.1-3.6,3.4-4.4,10.2-4.6h0l0,0c0.5,0,0.9,0,1.4,0c7.9,0,16.1,1.4,21.9,7.1l-0.4,0.4l-0.3-0.4l12.7-11.3
		l0.3,0.4l-0.4,0.4c-4.7-4.7-11.8-7.1-19.1-8.2l-0.3,0l-0.1-0.3L176.7,282.3l0.1-0.5c7.4,1.2,14.7,3.6,19.6,8.5l0.4,0.4l-13.5,11.9
		l-0.3-0.3c-5.5-5.5-13.5-6.8-21.2-6.8c-0.5,0-0.9,0-1.4,0l0,0c-6.9,0.2-9.2,1.1-9.2,3.6c0,1.7,0.9,2.4,6.1,3.1l-0.1,0.5l0.1-0.5
		l13.3,1.5l0,0c11.3,1.3,22,4.6,22,17.2c0,9.5-6.1,21.5-34.7,21.5c-16.3,0-29.2-2.6-37-10.4l-0.2-0.2l0.6-3.5l13.7-10.3l0.3,0.3
		c6.5,6.5,16,9.1,24.4,9.1c8,0,10.7-1.8,10.7-4.1c0-1.7-1-2.4-5.3-2.9l0,0l-14.1-1.8l0,0c-10.8-1.3-21.5-5.7-21.5-17.5
		c0-8.3,5.3-18.4,26.2-20.1l0,0.5l-0.5,0.1l-1.6-7h-26l-4.7,8h6.8l-2.5,14.8h-39l-1.3,7.1h37.5l-2.3,13.6H84.7l-1.3,7.6h39.4
		l-0.6,3.2l-2.1,1.6l-0.3-0.4l0.4-0.3c0.4,0.5,0.9,1,1.4,1.5l0.2,0.2l-1.6,9H59.2l10.2-57.8h7.7l5.1-29l0,0
		c0.6-3.6,1.8-7.9,3.2-12.1l0.5,0.2v0.5h-0.4v-0.5l0.5,0.2c-1.5,3.2-3.6,7.4-5.9,11.3l0,0L62,285.6H42.3l-6-32.2l0.5-0.1l-0.5,0.1
		c-1-4.4-1.4-8.8-1.7-11.5l0.5,0v0.5h-0.3v-0.5l0.5,0c-0.1,3.8-0.6,8.2-1.3,12.1l-0.5-0.1L34,254l-5.6,31.6H9.6l10.2-57.8h30.3l5,30
		l0,0c0.4,2.3,0.8,4.3,0.8,6.2c0,0.3,0,0.7,0,1l-0.5,0v-0.5h0.2v0.5l-0.5-0.2c0.7-2.2,2-4.6,3.5-7.4l0,0l15-29.7h33l-9.7,55H99
		l35.2-55h27.2l15.7,54.4L176.7,282.3l0.1-0.5L176.7,282.3z M255.2,307.1l-0.4-0.3c2.6-4.3,4.9-8.5,6.4-12.2l0.1-0.3h0.6h0.4
		l0.1,0.4c0.5,3.8,1,7.7,2.1,12.2l0,0l2.4,10.5h-18.2l6.2-10.6l0,0L255.2,307.1l0.4,0.3l-5.3,9.1h15.2l-2.1-9.2l0.5-0.1l-0.5,0.1
		c-1.1-4.5-1.6-8.5-2.1-12.3l0.5-0.1v0.5h-0.2v-0.5l0.5,0.2c-1.5,3.7-3.9,8-6.4,12.3l0,0L255.2,307.1z M250.4,277.2l-0.5-0.1
		l0.3-0.4c2.7,2.6,6,4.6,9.9,6l-0.2,1h-10.3l-0.7,1.2l-0.9-0.4l1.3-7.5 M251,273.7 M250.1,273.1l13.2-10l0.3,0.3
		c6.5,6.5,16,9.1,24.4,9.1c8,0,10.7-1.8,10.7-4.1c0-1.7-1-2.4-5.3-2.9l0,0l-14.1-1.8l0,0c-10.8-1.3-21.5-5.7-21.5-17.5
		c0-9.2,6.5-20.3,33-20.3c10.9,0,25.2,1.3,33.5,9.1l0.2,0.2l-0.2,1.1l0,0.2l-12.7,11.2l-0.3-0.3c-5.5-5.5-13.5-6.8-21.2-6.8
		c-0.5,0-0.9,0-1.4,0l0,0c-6.9,0.2-9.2,1.1-9.2,3.6c0,1.7,0.9,2.4,6.1,3.1l-0.1,0.5l0.1-0.5l13.3,1.5l0,0c11.3,1.3,22,4.6,22,17.2
		c0,6.2-2.6,13.5-12.2,17.8l-0.2-0.5v-0.5h15.3l-5.2,28.8l0,0c-0.2,1.3-0.4,2.5-0.4,3.6c0,8.3,6.5,10.5,12.2,10.5
		c9.3,0,13.3-6.1,14.6-13.3l0.5,0.1l-0.5-0.1l4.7-26.9l-13.1,0l7.3-41.2h-21.9l1.5-8.4l0.7-0.6l0.3,0.4l-0.4,0.4
		c-0.1-0.1-0.2-0.2-0.4-0.3l-0.2-0.2l1.4-7.8H390l-3,16.6h-0.4v-0.5l-0.5-0.1l2.7-15h-63.1l-1.2,6.7l-0.5-0.1l0.3-0.4
		c0.1,0.1,0.2,0.2,0.4,0.4l0.4,0.4l-0.8,0.7l-1.2,6.9l21.9,0l-7.3,41.2h13.1l-4.9,28.1l0,0c-1.3,7.4-5.8,14.1-15.6,14.1
		c-5.9,0-13.2-2.5-13.2-11.5c0-1.2,0.1-2.4,0.4-3.8l0,0l5-27.6h-14.1l-0.2-1c9.3-4.2,11.6-11,11.6-16.9c0-11.8-9.8-14.8-21.1-16.2
		l0,0l-13.3-1.5l0,0c-5.1-0.6-7-1.6-7-4.1c0.1-3.6,3.4-4.4,10.2-4.6l0,0h0c0.5,0,0.9,0,1.4,0c7.9,0,16.1,1.4,21.9,7.1l-0.4,0.4
		l-0.3-0.4l12-10.7l0.1-0.7l0.5,0.1l-0.3,0.4c-7.9-7.5-22-8.9-32.8-8.9c-26.3,0.1-31.9,10.7-32,19.3c0,11,9.9,15.2,20.6,16.5l0,0
		l14.1,1.8l-0.1,0.5l0.1-0.5c4.2,0.4,6.2,1.5,6.2,3.9c-0.1,3.4-3.7,5.1-11.7,5.1c-8.6,0-18.3-2.6-25.1-9.3l0.4-0.4l0.3,0.4
		l-12.6,9.5 M250.4,277l-1.4,7.8l-0.5-0.1l-0.4-0.3l1-1.6H260v0.5l-0.2,0.5c-4-1.5-7.5-3.6-10.3-6.2l-0.2-0.2 M250.1,273.1l3.6-20.2
		h-36.8l-1.9,10.9l19.3,0l-0.9,0.9l-0.4-0.4l0.5,0.1c-1.4,5.4-7.2,9.3-16.5,9.3c-9.7,0-16.2-4.3-16.3-15c0-9.8,5.4-18.5,18.7-18.5
		c6.4,0,13,1.9,14.6,8.1l-0.5,0.1l-0.1-0.5l22.2-3.6l0.1,0.5l-0.5,0.1c-2.7-12.2-18.1-18.2-35.2-18.2c-29.9,0-40.1,18.4-40.1,34.4
		c0,17.1,11.8,25.2,28.8,25.3c14.1,0,22-5.6,24.7-11.1l0.9,0.3l-0.8,8.9h15.7l-35.2,55h21.8l6.3-10.8h27.4l2.5,10.8h19.8l-15.4-53.5
		l0.7,0.1c2.9,0.2,6,0.3,9.1,0.3c6.4,0,11.6-0.6,15.9-1.6l0.7-0.2l-4.7,25.8l0,0c-0.5,2.5-0.7,4.8-0.7,6.9c0,17.8,14.9,24,32.3,24.1
		c23.3-0.1,32.5-11.5,35.5-28.3l0,0l5.2-29.4h-13.2l7.2-40.4h22.2v0.5l-0.5-0.1l0.5,0.1v0.5h-21.3l-6.9,38.4h13.2l-5.4,30.6l0,0
		c-2.9,17.1-12.9,29.2-36.5,29.1c-17.5,0-33.2-6.6-33.3-25.1c0-2.2,0.2-4.6,0.7-7.1l0,0l4.6-25l0.5,0.1l0.1,0.5
		c-4.4,1.1-9.7,1.7-16.1,1.7c-3.2,0-6.3-0.1-9.2-0.3l0-0.5l0.5-0.1l15.6,54h-21.9l-2.5-10.8h-26l-6.3,10.8h-24.2l35.2-55l-15,0
		l0.9-10l0.5,0l0.4,0.2c-2.9,5.9-11.2,11.6-25.6,11.6c-17.3,0-29.8-8.6-29.8-26.3c0-16.4,10.7-35.3,41.1-35.4c17.3,0,33.2,6,36.2,19
		l0.1,0.5l-23.2,3.8l-0.1-0.4c-1.3-5.6-7.3-7.4-13.6-7.4c-12.8,0-17.7,8.1-17.7,17.5c0.1,10.2,5.8,13.9,15.3,14
		c9,0,14.2-3.7,15.5-8.5l0-0.1l0.2-0.2l0.4,0.4v0.5h-19.3l2.3-12.9h38.9l-3.8,21.8 M249.4,277.1l0.5,0.1l-0.3,0.4
		c-0.1-0.1-0.1-0.1-0.2-0.2 M463.7,254.6h0.5c0,8.5-5.6,17.7-20.7,17.7h-13.6l5.5-31.3h13.3c7.9,0,15.4,3.5,15.5,13.6H463.7h-0.5
		c0-9.4-6.8-12.6-14.5-12.6h-12.5l-5.2,29.3h12.4c14.7,0,19.6-8.6,19.7-16.7H463.7z M554.7,258.3l-0.5-0.1l5.2-29.4h-19.5l-5,28.9
		l0,0c-1.3,7.4-5.8,14.1-15.6,14.1c-5.9,0-13.2-2.5-13.2-11.5c0-1.2,0.1-2.4,0.4-3.8l0,0l5-27.6H492l-4.9,26.7l0,0
		c-0.5,2.5-0.7,4.8-0.7,6.9c0,10.4,5.1,16.8,12.8,20.4l-0.2,1h-0.3v-0.5l0.5,0.1l-3.8,21.8H467l3.8-21.4h-10.6l-0.1-1
		c18-4.6,25.1-17,25.1-29.9c0-20.2-16.2-24.1-34.9-24.1h-32.1l-9.3,53.1l-0.4,0c-0.2,0-0.4,0-0.6,0c-28.7,0-40.3,16.2-40.3,32.3
		c0,19.2,16.1,27.3,35.7,27.3c18.3,0,30.7-7.3,37-20.4l0.5,0.2l-0.1,0.5l-20.2-4.6l0.1-0.5l0.5,0.2c-2.3,5.8-7.3,10.3-16.8,10.3
		c-7.5,0-15.8-2.9-15.9-13.9c0-7.8,4.3-17.2,18.7-17.2c6.9,0,12.9,2.4,15.7,10.4l-0.5,0.2l-0.1-0.5l21.8-4l0.1,0.5l-0.5,0.1
		c-2-8.2-7.8-13.8-15.7-17.2l0.2-1h16.2c2.2,0,4.3-0.1,6.2-0.3l0.6-0.1l-9.7,55.3h19.5l3.8-21.8h28.4l-3.8,21.8h19.4l9.3-53.1h0.4
		c0.1,0,0.2,0,0.3,0c3.2,0,6.2-0.2,8.9-0.7l0.3,0.9c-1.9,0.9-3.7,1.9-5.3,3.1l-0.3-0.4l0.5-0.2l6.1,13.5l-0.5,0.2l-0.3-0.4
		c4.2-3,7.5-4,10.5-4c2.8,0,4.5,1.4,4.5,3.5c-0.1,3.7-4.7,5.4-13.5,6.3l0-0.5l0.3,0.4L529,309l-1.1,13.2H538l2.5-6.3l0.3,0
		c14.1-2.3,19.3-9.6,19.3-18c0-8.3-6.9-14.1-17.9-14.1c-1.7,0-3.3,0.1-4.9,0.3l-0.3-1c10.2-4.6,15.2-13.5,17.2-24.9l0,0l0,0
		L554.7,258.3l0.5,0.1c-2,11.6-7.2,20.9-17.7,25.6l-0.2-0.5l-0.1-0.5c1.6-0.2,3.3-0.4,5-0.4c11.4,0,18.9,6.2,18.9,15.1
		c0,8.9-5.8,16.7-20.2,19l-0.1-0.5l0.5,0.2l-2.6,6.6h-11.9l1.3-14.7l1.3-1.1l0.2,0c8.8-0.9,12.7-2.8,12.6-5.3c0-1.5-0.9-2.4-3.5-2.5
		c-2.8,0-5.8,0.9-10,3.8l-0.5,0.4l-6.5-14.4l0.3-0.2c1.7-1.2,3.5-2.3,5.5-3.2l0.2,0.5l0.1,0.5c-2.8,0.4-5.8,0.7-9.1,0.7
		c-0.1,0-0.2,0-0.3,0V287l0.5,0.1l-9.4,53.5h-21.4l3.8-21.8h-26.3l-3.8,21.8h-21.5l9.8-55.8l0.5,0.1l0,0.5c-2,0.2-4.1,0.3-6.3,0.3
		H428v-0.5l0.2-0.5c8.1,3.4,14.2,9.4,16.3,17.9l0.1,0.5l-22.8,4.2l-0.1-0.4c-2.7-7.6-8-9.7-14.7-9.7c-13.9,0-17.7,8.8-17.7,16.2
		c0,10.4,7.5,12.9,14.9,12.9c9.2,0,13.6-4.2,15.9-9.7l0.2-0.4l21.2,4.9l-0.3,0.6c-6.4,13.5-19.4,20.9-37.9,20.9
		c-19.9,0-36.7-8.5-36.7-28.3c0-16.7,12.2-33.3,41.3-33.3c0.2,0,0.5,0,0.7,0l0,0.5l-0.5-0.1l9.4-53.5h33c18.6,0,35.8,4.2,35.9,25.1
		c0,13.2-7.4,26.2-25.9,30.8l-0.1-0.5v-0.5h11.8l-3.8,21.4h26.3l3.8-21.4h0.7v0.5l-0.2,0.5c-8-3.7-13.4-10.5-13.4-21.3
		c0-2.2,0.2-4.6,0.7-7.1l0,0l5-27.5h21.5l-5.2,28.8l0,0c-0.2,1.3-0.4,2.5-0.4,3.6c0,8.3,6.5,10.5,12.2,10.5
		c9.3,0,13.3-6.1,14.6-13.3l0.5,0.1l-0.5-0.1l5.2-29.7h21.5l-5.4,30.6l0,0L554.7,258.3z"/>
</g>
</svg>
