<?xml version="1.0" encoding="utf-8"?>
<!-- Generator: Adobe Illustrator 22.0.0, SVG Export Plug-In . SVG Version: 6.00 Build 0)  -->
<svg version="1.1" id="Ebene_1" xmlns="http://www.w3.org/2000/svg" xmlns:xlink="http://www.w3.org/1999/xlink" x="0px" y="0px"
	 viewBox="0 0 332.1 332.1" style="enable-background:new 0 0 332.1 332.1;" xml:space="preserve">
<style type="text/css">
	.st0{clip-path:url(#SVGID_2_);fill:url(#SVGID_3_);}
	.st1{clip-path:url(#SVGID_2_);fill:url(#SVGID_4_);}
	.st2{clip-path:url(#SVGID_2_);fill:url(#SVGID_5_);}
</style>
<g>
	<defs>
		<rect id="SVGID_1_" x="11" y="81.2" width="309.7" height="168.8"/>
	</defs>
	<clipPath id="SVGID_2_">
		<use xlink:href="#SVGID_1_"  style="overflow:visible;"/>
	</clipPath>
	
		<linearGradient id="SVGID_3_" gradientUnits="userSpaceOnUse" x1="-234.4112" y1="568.6553" x2="-233.4112" y2="568.6553" gradientTransform="matrix(32.1948 182.586 182.586 -32.1948 -96089.25 61188.3086)">
		<stop  offset="0" style="stop-color:#292A2A"/>
		<stop  offset="0.1617" style="stop-color:#1A1B29"/>
		<stop  offset="0.4143" style="stop-color:#060728"/>
		<stop  offset="1" style="stop-color:#141C86"/>
	</linearGradient>
	<path class="st0" d="M281.4,234.6l0.5,0.1l-3.7,13.8h17.5l3.6-13.4h-17.9V234.6l0.5,0.1L281.4,234.6v-0.5h19.2l-4.2,15.4h-19.6
		l4.2-15.4h0.4V234.6z M295,108.6h0.5c0,8.5-5.6,17.7-20.7,17.7h-13.6l5.5-31.3h13.3c7.9,0,15.4,3.5,15.5,13.6H295h-0.5
		c0-9.4-6.8-12.6-14.5-12.6h-12.5l-5.2,29.3l12.4,0c14.7,0,19.6-8.6,19.7-16.7H295z M144.8,163.1h0.5c0,8.9-5.3,18.6-19.7,18.6
		c-7.9,0-15.8-3.8-15.9-13.5c0-8.8,5.3-18.5,19.7-18.5c7.9,0,15.8,3.8,15.9,13.5H144.8h-0.5c0-9-7.2-12.4-14.9-12.5
		c-13.9,0-18.7,9-18.7,17.5c0,9.1,7.2,12.5,14.9,12.5c13.9,0,18.7-9,18.7-17.6H144.8z"/>
	
		<linearGradient id="SVGID_4_" gradientUnits="userSpaceOnUse" x1="-237.2829" y1="571.7985" x2="-236.2829" y2="571.7985" gradientTransform="matrix(10.8279 61.4081 61.4081 -10.8279 -32377.9648 20931.4395)">
		<stop  offset="0" style="stop-color:#292A2A"/>
		<stop  offset="0.1617" style="stop-color:#1A1B29"/>
		<stop  offset="0.4143" style="stop-color:#060728"/>
		<stop  offset="1" style="stop-color:#141C86"/>
	</linearGradient>
	<path class="st1" d="M165.5,172.4c1.9,13.7,13.2,20.7,27.7,22.6l0.5,0.1l-3.9,22l-1.7,10.3h-0.7h-0.3l-0.1-0.3
		c-1.1-2.5-1.8-3.9-4.6-7.9l0,0l-18-26.4h-17.6l-0.2-1c10.2-4.3,15.6-11.8,17.9-19.4l1,0.3c-2.4,7.9-8,15.6-18.5,20.1l-0.2-0.5v-0.5
		h18.1l18.3,26.9l-0.4,0.3l0.4-0.3c2.8,4,3.6,5.6,4.7,8.1l-0.5,0.2v-0.5h0.2v0.5l-0.5-0.1l1.6-9.9l3.8-21.5l0.5,0.1L193,196
		c-14.8-1.8-26.6-9.1-28.6-23.4L165.5,172.4L165.5,172.4z"/>
	
		<linearGradient id="SVGID_5_" gradientUnits="userSpaceOnUse" x1="-234.1897" y1="568.4014" x2="-233.1897" y2="568.4014" gradientTransform="matrix(37.9731 215.356 215.356 -37.9731 -113367.3359 72075.8359)">
		<stop  offset="0" style="stop-color:#292A2A"/>
		<stop  offset="0.1617" style="stop-color:#1A1B29"/>
		<stop  offset="0.4143" style="stop-color:#060728"/>
		<stop  offset="1" style="stop-color:#141C86"/>
	</linearGradient>
	<path class="st2" d="M165.7,158.3c-1.6-11.5-10.2-17.8-21.1-20.7l-1.3-0.3l1.2-0.6c9.8-4.7,14.6-13.4,16.6-24.6l0,0l5.2-29.4h-19.5
		l-5,28.9l0,0c-1.3,7.4-5.8,14.1-15.6,14.1c-5.9,0-13.2-2.5-13.2-11.5c0-1.2,0.1-2.4,0.4-3.8l0,0l5-27.6H98.9L94,109.5
		c-0.5,2.5-0.7,4.8-0.7,6.9c0,11.9,6.6,18.5,16.1,21.7l1.3,0.4l-1.3,0.5c-15.6,6-20.5,19.3-20.5,29.8c0,12,6.6,19.1,16,22.9l-0.2,1
		H80.1l9.7-55H72.3L68,162l-1.7,10.3h-0.7h-0.3l-0.1-0.3c-1.1-2.5-1.8-3.9-4.6-7.9l0,0l-18-26.4h-20l-9.8,55.8h17.5l4.2-24.5l0,0
		c0.7-3.7,1.1-6.9,1.6-9.9l0.1-0.4H37h0.3l0.1,0.3c0.9,1.9,2.4,4.4,4.6,7.5l0,0l18.7,26.3H49.8L40,248.5h58.9l2.3-12.8H61.7l1.7-9.6
		h37.5l2-11.6H65.4l1.6-9.1h39l2.1-12.6l0.5,0.2c2.1,0.6,4.2,1.1,6.4,1.5l0.5,0.1l-9.5,53.9h19.5l9.4-53.7l0.4-0.1
		c3.1-0.4,5.8-1.1,8.3-1.9l0.8-0.3l-9.8,55.9h17.5l4.2-24.6l0,0c0.7-3.7,1.1-6.9,1.6-9.9l0.1-0.4h0.7h0.3l0.1,0.3
		c0.9,1.9,2.4,4.4,4.6,7.5l0,0l19.3,27.1h18.7l9.5-54l0.3-0.1c3.1-0.6,5.9-1.4,8.5-2.5l0.8-0.3l-10,56.9h58.9l2.3-12.8h-39.4
		l1.7-9.6h37.5l2-11.6h-37.5l1.6-9.1h39l2.2-12.8h-20.3l3.7-21h28.4l-3.8,21.8h2.9l0.2,1c-3.1,1-5.9,2.5-8.3,4.3l-0.3-0.4l0.5-0.2
		l6.1,13.5l-0.5,0.2l-0.3-0.4c4.2-3,7.5-4,10.5-4c2.8,0,4.5,1.4,4.5,3.5c-0.1,3.7-4.7,5.4-13.5,6.3l0-0.5l0.3,0.4l-0.9,0.7
		l-1.1,13.2h10.2l2.5-6.3l0.3,0c14.1-2.3,19.3-9.6,19.3-18c0-6.8-4.6-11.9-12.3-13.6l-0.5-0.1l9.8-55.4h-19.4l-3.8,21.4h-28.4
		l3.6-20.6h7.3c29.8,0,40.8-15.6,40.9-31.7c0-20.2-16.2-24.1-34.9-24.1h-32.1l-9.8,55.8l9.2,0l-9.5,54.2h-18.5l-0.2-1
		c7.8-3.4,13.6-9,17.3-16.7l0.5,0.2l-0.1,0.5l-20.2-4.6l0.1-0.5l0.5,0.2c-2.3,5.8-7.3,10.3-16.8,10.3c-7.5,0-15.8-2.9-15.9-13.9
		c0-7.8,4.3-17.2,18.7-17.2c6.9,0,12.9,2.4,15.7,10.4l-0.5,0.2l-0.1-0.5l21.8-4l0.1,0.5l-0.5,0.1c-2-8.2-7.8-13.8-15.7-17.2l0.2-1
		h4.7l9.8-55.8h-17.5l-4.3,24.3l-1.7,10.3h-0.7h-0.3l-0.1-0.3c-1.1-2.5-1.8-3.9-4.6-7.9l0,0l-18-26.4h-20l-9.8,55.8h17.5l4.2-24.6
		l0,0c0.7-3.7,1.1-6.9,1.6-9.9l0.1-0.4h0.7h0.3l0.1,0.3c0.9,1.9,2.4,4.4,4.6,7.5l0,0l17.5,24.5l-1-0.1c-1.1-0.1-2.3-0.1-3.5-0.1
		c-22.9,0-34.8,10.3-38.8,22.6l-0.5-0.2l0.5-0.1c0,0.1,0,0.2,0,0.3l-1,0.1C165.7,158.6,165.7,158.5,165.7,158.3l0-0.1l0-0.1
		c4.1-12.8,16.6-23.3,39.7-23.3c1.2,0,2.4,0,3.5,0.1l0,0.5l-0.4,0.3l-16.9-23.7l0,0c-2.3-3.1-3.8-5.6-4.7-7.7l0.5-0.2v0.5h-0.2v-0.5
		l0.5,0.1c-0.5,3-0.9,6.2-1.6,9.9l-0.5-0.1l0.5,0.1l-4.4,25.4h-19.6l10.2-57.8h21.3l18.3,26.9l-0.4,0.3l0.4-0.3
		c2.8,4,3.6,5.6,4.7,8.1l-0.5,0.2v-0.5h0.2v0.5l-0.5-0.1l1.6-9.9l4.5-25.1h19.5l-10.2,57.8h-5.5V139l0.2-0.5
		c8.1,3.4,14.2,9.4,16.3,17.9l0.1,0.5l-22.8,4.2l-0.1-0.4c-2.7-7.6-8-9.7-14.7-9.7c-13.9,0-17.7,8.8-17.7,16.2
		c0,10.4,7.5,12.9,14.9,12.9c9.2,0,13.6-4.2,15.9-9.7l0.2-0.4L239,175l-0.3,0.6c-3.7,7.9-9.7,13.7-17.8,17.2l-0.2-0.5v-0.5h17.7
		l9.2-52.2h-9.2l10.2-57.8h33c18.6,0,35.8,4.2,35.9,25.1c0,16.6-11.7,32.6-41.9,32.7h-6.5l-3.3,18.6h26.3l3.8-21.4h21.4l-9.9,56.1
		l-0.5-0.1l0.1-0.5c8.1,1.7,13.1,7.2,13.1,14.6c0,8.9-5.8,16.7-20.2,19l-0.1-0.5l0.5,0.2l-2.6,6.6h-11.9l1.3-14.7l1.3-1.1l0.2,0
		c8.8-0.9,12.7-2.8,12.6-5.3c0-1.5-0.9-2.4-3.5-2.5c-2.8,0-5.8,0.9-10,3.8l-0.5,0.4l-6.5-14.4l0.3-0.2c2.6-1.9,5.4-3.4,8.6-4.4
		l0.2,0.5v0.5h-4.1l3.8-21.8h-26.3l-3.3,19h20.3l-2.5,14.8h-39l-1.3,7.1h37.5l-2.3,13.6h-37.5l-1.3,7.6h39.4l-2.7,14.8h-60.9
		l10.1-57.2l0.5,0.1l0.2,0.5c-2.7,1.1-5.6,2-8.7,2.6l-0.1-0.5l0.5,0.1l-9.6,54.5h-20l-19.6-27.5l0,0c-2.3-3.1-3.8-5.6-4.7-7.7
		l0.5-0.2v0.5h-0.2v-0.5l0.5,0.1c-0.5,3-0.9,6.2-1.6,9.9l-0.5-0.1l0.5,0.1l-4.4,25.4h-19.6l9.9-56.3l0.5,0.1l0.2,0.5
		c-2.6,0.9-5.4,1.5-8.5,2l-0.1-0.5l0.5,0.1l-9.5,54.1h-21.5l9.6-54.6l0.5,0.1l-0.1,0.5c-2.2-0.4-4.4-0.9-6.5-1.5l0.1-0.5l0.5,0.1
		l-2.2,12.8h-39l-1.3,7.1h37.5l-2.3,13.6H64.3l-1.3,7.6h39.4l-2.7,14.8H38.8l10.2-57.8h9.8l-17.6-24.7l0,0c-2.3-3.1-3.8-5.6-4.7-7.7
		l0.5-0.2v0.5h-0.2v-0.5l0.5,0.1c-0.5,3-0.9,6.2-1.6,9.9l-0.5-0.1l0.5,0.1l-4.4,25.4H11.6l10.2-57.8h21.3l18.3,26.9l-0.4,0.3
		l0.4-0.3c2.8,4,3.6,5.6,4.7,8.1l-0.5,0.2v-0.5h0.2v0.5l-0.5-0.1l1.6-9.9l4.5-25.1H91l-9.7,55h23.4v0.5l-0.2,0.5
		C95,188.8,88,181.2,88,168.8c0-10.8,5.1-24.5,21.1-30.7l0.2,0.5l-0.2,0.5c-9.8-3.3-16.8-10.4-16.8-22.7c0-2.2,0.2-4.6,0.7-7.1
		l5-27.5h21.5l-5.2,28.8l0,0c-0.2,1.3-0.4,2.5-0.4,3.6c0,8.3,6.5,10.5,12.2,10.5c9.3,0,13.3-6.1,14.6-13.3l0.5,0.1l-0.5-0.1
		l5.2-29.7h21.5l-5.4,30.6l0,0c-2,11.4-7,20.5-17.1,25.3l-0.2-0.5l0.1-0.5c11,2.9,20.1,9.5,21.8,21.5L165.7,158.3L165.7,158.3z"/>
</g>
</svg>
