<?xml version="1.0" encoding="utf-8"?>
<!-- Generator: Adobe Illustrator 22.0.0, SVG Export Plug-In . SVG Version: 6.00 Build 0)  -->
<svg version="1.1" id="Ebene_1" xmlns="http://www.w3.org/2000/svg" xmlns:xlink="http://www.w3.org/1999/xlink" x="0px" y="0px"
	 viewBox="0 0 409.7 409.7" style="enable-background:new 0 0 409.7 409.7;" xml:space="preserve">
<style type="text/css">
	.st0{clip-path:url(#SVGID_2_);fill:url(#SVGID_3_);}
</style>
<g>
	<defs>
		<rect id="SVGID_1_" x="16.8" y="146.2" width="375.9" height="117.6"/>
	</defs>
	<clipPath id="SVGID_2_">
		<use xlink:href="#SVGID_1_"  style="overflow:visible;"/>
	</clipPath>
	
		<linearGradient id="SVGID_3_" gradientUnits="userSpaceOnUse" x1="-193.5747" y1="606.9307" x2="-192.5747" y2="606.9307" gradientTransform="matrix(374.712 0 0 -374.712 72552.1953 227629.2344)">
		<stop  offset="0" style="stop-color:#0B4379"/>
		<stop  offset="1.593410e-03" style="stop-color:#0B4379"/>
		<stop  offset="0.2189" style="stop-color:#11417F"/>
		<stop  offset="1" style="stop-color:#253B90"/>
	</linearGradient>
	<path class="st0" d="M369.3,168.1h0.5c0,3.6-2.2,7.6-9.1,7.6h-16.2l2.5-14h15.2c3.9,0,7.5,1.7,7.5,6.4H369.3h-0.5
		c0-4.1-2.9-5.4-6.5-5.4h-14.4l-2.1,12h15c6.4-0.1,8-3.5,8.1-6.6H369.3z M343,187.3v-0.5h12.2l8.3,17.8h-3.8L345,233.8l0,0
		c-1.4,2.8-2.7,5.1-3.4,7.2l-0.1,0.3H341h-0.5l0-0.5c0-0.3,0-0.6,0-1c0-1.8-0.3-3.7-0.7-6l0,0l-4.8-28.4h4.3l3.3-18.6h0.4V187.3
		l0.5,0.1l-3.4,19h-3.9l4.6,27.2l0,0c0.4,2.3,0.8,4.3,0.8,6.2c0,0.3,0,0.7,0,1l-0.5,0v-0.5h0.2v0.5l-0.5-0.2c0.7-2.2,2-4.6,3.5-7.4
		l0,0l15-29.7h2.8l-7.4-15.8H343V187.3l0.5,0.1L343,187.3z M190.9,215.7l0.5-0.1c0.5,3.8,1,7.7,2.1,12.2l0,0l2.4,10.5h-18.2
		l6.2-10.6l0,0c2.6-4.3,4.9-8.5,6.4-12.2l0.1-0.3h0.6h0.4l0.1,0.4L190.9,215.7v0.5h-0.2v-0.5l0.5,0.2c-1.5,3.7-3.9,8-6.4,12.3l0,0
		l-5.3,9.1h15.2l-2.1-9.2l0.5-0.1l-0.5,0.1c-1.1-4.5-1.6-8.5-2.1-12.3L190.9,215.7v0.5V215.7z M105.8,217.1v-0.5h14.8
		c3.9,0,7.5,1.7,7.5,6.4c0,3.6-2.2,7.6-9.1,7.6h-16.2l2.5-14h0.4V217.1l0.5,0.1l-2.2,12.5h15c6.4-0.1,8-3.5,8.1-6.6
		c0-4.1-2.9-5.4-6.5-5.4h-14.8V217.1l0.5,0.1L105.8,217.1z M391.1,166.6h-0.5c0-12.9-10.5-17-22.6-17h-38.4l-9.7,55h-7.2l2.2-12
		l-39.4,0l1.7-9.6h37.5l2-11.6h-37.5l1.6-9.1h39l2.2-12.8h-58.3l-9.8,55.8h26.1l-4.9,28.1l0,0c-1.3,7.4-5.8,14.1-15.6,14.1
		c-5.9,0-13.2-2.5-13.2-11.5c0-1.2,0.1-2.4,0.4-3.8l0,0l5-27.7h-10.6l-0.2-1c9.3-4.2,11.6-11,11.6-16.9c0-11.8-9.8-14.8-21.1-16.2
		l0,0L218,169l0,0c-5.1-0.6-7-1.6-7-4.1c0.1-3.6,3.4-4.4,10.2-4.6l0,0l0,0c0.5,0,0.9,0,1.4,0c7.9,0,16.1,1.4,21.9,7.1l-0.4,0.4
		l-0.3-0.4l12.7-11.3l0.3,0.4l-0.4,0.4c-7.8-7.8-22.2-9.2-33.2-9.2c-26.3,0.1-31.9,10.7-32,19.3c0,11,9.9,15.2,20.6,16.5l0,0
		l14.1,1.8l-0.1,0.5l0.1-0.5c4.2,0.4,6.2,1.5,6.2,3.9c-0.1,3.4-3.7,5.1-11.7,5.1c-8.6,0-18.3-2.6-25.1-9.3l0.4-0.4l0.3,0.4
		l-15.2,11.4l-0.3-0.4l0.4-0.3c2.9,3.5,6.9,6.1,11.7,7.9l-0.2,1h-14.3l9.7-55h-17.5l-4.3,24.3l-1.7,10.3h-0.7h-0.3l-0.1-0.3
		c-1.1-2.5-1.8-3.9-4.6-7.9l0,0l-18-26.4h-20l-9.7,55H92.3l-0.2-1c9.8-4.7,14.7-13.4,16.6-24.6l0,0l5.2-29.4H94.4l-5,28.9l0,0
		c-1.3,7.4-5.8,14.1-15.6,14.1c-5.9,0-13.2-2.5-13.2-11.5c0-1.2,0.1-2.4,0.4-3.8l0,0l5-27.7H46.5l-4.9,26.7l0,0
		c-0.5,2.5-0.7,4.8-0.7,6.9c0,10.4,5.1,16.8,12.8,20.4l-0.2,1H21.2l-2.6,14.6h21.9l-7.3,41.2h19.4l7.4-41.2h21.8l2.3-12.9l0.3-0.1
		c0.9-0.2,1.8-0.4,2.7-0.7l0.8-0.2l-9.7,55.1h19.5l3.3-18.6h12.7l8.7,18.6h19.6l1.1-1.7l-9-18.9l0.6-0.2c12-3.2,14.5-11.5,14.5-18.1
		c0-11.9-8.9-16.2-19.8-16.9l-0.6,0l4.1-23.8l0,0c0.7-3.7,1.1-6.9,1.6-9.9l0.1-0.4h0.7h0.3l0.1,0.3c0.9,1.9,2.4,4.4,4.6,7.5l0,0
		l19.3,27.1h18.9L144,258.8l0.8,1.6h20l6.3-10.8h27.4l2.5,10.8h19.8l-15.5-53.8l0.7,0.1c3.9,0.5,8.2,0.7,12.7,0.7
		c4.7,0,8.8-0.3,12.4-0.9l0.7-0.1l-4.6,25l0,0c-0.5,2.5-0.7,4.8-0.7,6.9c0,17.8,14.9,24,32.3,24.1c23.3-0.1,32.5-11.5,35.5-28.3l0,0
		l5-28.6h6.9l-9.7,55h16.7l5.4-30.8l0,0c0.7-3.8,1.2-8.2,1.3-11.9l0-0.5h0.8h0.5l0,0.5c0.2,2.7,0.7,7,1.7,11.4l0,0l5.8,31.4h18.3
		l17.8-31.7l0,0c2.2-3.9,4.3-8.1,5.8-11.2l0.1-0.3h0.7h0.7l-0.2,0.7c-1.4,4.1-2.5,8.4-3.2,11.9l0,0l-5.4,30.6h17.7l9.8-55.8H385
		l-9.5-19.8l0.6-0.2c12-3.2,14.5-11.5,14.5-18.1H391.1h0.5c0,6.8-2.8,15.8-15.3,19l-0.1-0.5l0.5-0.2l8.9,18.6h6.5L382,261.4h-19.7
		l5.6-31.8l0,0c0.6-3.6,1.8-7.9,3.2-12.1l0.5,0.2v0.5h-0.4v-0.5l0.5,0.2c-1.5,3.2-3.6,7.4-5.9,11.3l0,0l-18.1,32.2h-19.7l-6-32.2
		l0.5-0.1l-0.5,0.1c-1-4.4-1.4-8.8-1.7-11.5l0.5,0v0.5h-0.3v-0.5l0.5,0c-0.1,3.8-0.6,8.2-1.3,12.1l-0.5-0.1l0.5,0.1l-5.6,31.6h-18.8
		l9.7-55h-4.8l-4.9,27.8l0,0c-2.9,17.1-12.9,29.2-36.5,29.1c-17.5,0-33.2-6.6-33.3-25.1c0-2.2,0.2-4.6,0.7-7.1l0,0l4.4-24.3l0.5,0.1
		l0.1,0.5c-3.6,0.6-7.7,0.9-12.5,0.9c-4.5,0-8.8-0.2-12.8-0.7l0.1-0.5l0.5-0.1l15.7,54.4h-21.9l-2.5-10.8h-26l-6.3,10.8h-21.2
		l-1.3-2.7l33.5-52.3l-17.5,0l-19.6-27.5l0,0c-2.3-3.1-3.8-5.6-4.7-7.7l0.5-0.2v0.5h-0.2V171l0.5,0.1c-0.5,3-0.9,6.2-1.6,9.9
		l-0.5-0.1l0.5,0.1l-4,23.3l-0.5-0.1l0-0.5c11,0.6,20.8,5.4,20.7,17.9c0,6.8-2.8,15.8-15.3,19l-0.1-0.5l0.5-0.2l9,18.8l-1.7,2.6
		h-20.8l-8.7-18.6h-11.2l-3.3,18.6H76.9l9.8-55.5l0.5,0.1l0.1,0.5c-0.9,0.3-1.8,0.5-2.7,0.7l-0.1-0.5l0.5,0.1l-2.4,13.4H60.8
		l-7.4,41.2H32.1l7.3-41.2l-21.9,0l3-16.6h33.1v0.5l-0.2,0.5c-8-3.7-13.4-10.5-13.4-21.3c0-2.2,0.2-4.6,0.7-7.1l0,0l5-27.5h21.5
		l-5.2,28.8l0,0c-0.2,1.3-0.4,2.5-0.4,3.6c0,8.3,6.5,10.5,12.2,10.5c9.3,0,13.3-6.1,14.6-13.3l0.5,0.1l-0.5-0.1l5.2-29.7h21.5
		l-5.4,30.6l0,0c-2,11.4-7,20.5-17.2,25.4l-0.2-0.5v-0.5h17.9l9.7-55h21.3l18.3,26.9l-0.4,0.3l0.4-0.3c2.8,4,3.6,5.6,4.7,8.1
		l-0.5,0.2v-0.5h0.2v0.5l-0.5-0.1l1.6-9.9l4.5-25.1h19.5l-9.7,55h13.1v0.5l-0.2,0.5c-4.9-1.9-9.1-4.5-12.1-8.2l-0.3-0.4l16-12
		l0.3,0.3c6.5,6.5,16,9.1,24.4,9.1c8,0,10.7-1.8,10.7-4.1c0-1.7-1-2.4-5.3-2.9l0,0l-14.1-1.8l0,0c-10.8-1.3-21.5-5.7-21.5-17.5
		c0-9.2,6.5-20.3,33-20.3c11.1,0,25.7,1.3,33.9,9.5l0.4,0.4l-13.5,11.9l-0.3-0.3c-5.5-5.5-13.5-6.8-21.2-6.8c-0.5,0-0.9,0-1.4,0l0,0
		c-6.9,0.2-9.2,1.1-9.2,3.6c0,1.7,0.9,2.4,6.1,3.1l-0.1,0.5l0.1-0.5l13.3,1.5l0,0c11.3,1.3,22,4.6,22,17.2c0,6.2-2.6,13.5-12.2,17.8
		l-0.2-0.5v-0.5h11.8l-5.2,28.8l0,0c-0.2,1.3-0.4,2.5-0.4,3.6c0,8.3,6.5,10.5,12.2,10.5c9.3,0,13.3-6.1,14.6-13.3l0.5,0.1l-0.5-0.1
		l4.7-26.9l-26.1,0l10.2-57.8h60.4l-2.5,14.8h-39l-1.3,7.1h37.5l-2.3,13.6H278l-1.3,7.6h39.4l-2.2,12h5.1l9.7-55H368
		c12.2,0,23.6,4.4,23.6,18H391.1z"/>
</g>
</svg>
